<svg width="193" height="87" viewBox="0 0 193 87" fill="none" xmlns="http://www.w3.org/2000/svg">
<path fill-rule="evenodd" clip-rule="evenodd" d="M50.1402 2.70314C57.4908 4.422 63.4304 8.93748 69.3524 13.6263C75.0137 18.1088 80.0499 22.9393 83.6275 29.2173C88.0389 36.9585 95.2425 45.4298 92.2621 53.8287C89.2737 62.2499 77.1719 62.1871 70.028 67.5406C62.7213 73.0162 58.9214 82.9096 50.1402 85.3944C40.1495 88.2214 28.5946 87.5091 19.9822 81.7018C11.2598 75.8204 6.48331 65.2645 4.85418 54.8587C3.36817 45.3669 8.3282 36.607 11.5028 27.5409C14.5873 18.7323 15.2387 7.84771 23.081 2.80637C30.8627 -2.19608 41.1361 0.597667 50.1402 2.70314Z" fill="#688101"/>
<path d="M23.9164 83.8929C24.9521 84.756 32.1662 84.8417 36.2542 82.5965C40.3422 80.3156 43.6234 77.2507 46.0977 73.4017C48.572 69.5171 49.8092 65.1514 49.8092 60.3046C49.8092 56.7051 49.1458 53.3016 47.819 50.0941C46.528 46.851 44.6095 44.0356 42.0635 41.6478C39.5175 39.2244 36.3977 37.4781 32.7041 36.409L48.4107 21.2804V7.59524H0V21.2804H31.0904L10.22 38.4938L16.7824 49.9338C18.7188 48.7933 20.7269 48.2231 22.8068 48.2231C26.3569 48.2231 29.2616 49.417 31.5207 51.8048C33.8158 54.1569 34.9633 56.9902 34.9633 60.3046C34.9633 62.5142 34.4074 64.5277 33.2958 66.3453C32.22 68.1629 30.7497 69.6062 28.885 70.6754C27.0562 71.7445 25.0301 72.2791 22.8068 72.2791C20.2249 72.2791 17.8223 71.5129 15.599 69.9804C13.4116 68.4123 11.9413 66.2206 11.1882 63.4051L7.34493 64.5595C8.55326 67.6667 8.72588 68.0119 10.4521 71.2917C12.1783 74.2262 14.2497 76.6919 15.599 78.0238C18.0473 80.4405 19.7735 82.3393 23.9164 83.8929Z" fill="white"/>
<path d="M64.6544 34.8206H70.9705V7.28432H86.4821V1.38701H64.6544V34.8206Z" fill="white"/>
<path d="M106.397 35.5171C109.741 35.5171 112.62 34.7896 115.035 33.3347C117.465 31.8797 119.331 29.8442 120.631 27.2284C121.947 24.6125 122.605 21.571 122.605 18.1038C122.605 14.6366 121.947 11.5951 120.631 8.97922C119.331 6.36335 117.465 4.32792 115.035 2.87295C112.62 1.41797 109.741 0.690475 106.397 0.690475C103.053 0.690475 100.166 1.41797 97.7353 2.87295C95.3203 4.32792 93.4549 6.36335 92.139 8.97922C90.8386 11.5951 90.1884 14.6366 90.1884 18.1038C90.1884 21.571 90.8386 24.6125 92.139 27.2284C93.4549 29.8442 95.3203 31.8797 97.7353 33.3347C100.166 34.7896 103.053 35.5171 106.397 35.5171ZM106.397 29.5734C103.223 29.5269 100.839 28.4744 99.2446 26.4158C97.6656 24.3571 96.8761 21.5865 96.8761 18.1038C96.8761 14.6211 97.6656 11.8273 99.2446 9.72219C100.839 7.61711 103.223 6.58779 106.397 6.63422C109.586 6.68066 111.97 7.7332 113.549 9.79184C115.128 11.8505 115.917 14.6211 115.917 18.1038C115.917 21.5865 115.128 24.3803 113.549 26.4854C111.97 28.5905 109.586 29.6198 106.397 29.5734Z" fill="white"/>
<path d="M126.333 40.3929H132.649V34.8206H151.923V40.3929H158.239V28.9233H155.685V1.38701L133.485 1.34057C133.253 4.73037 133.052 7.78737 132.882 10.5116C132.711 13.2203 132.51 15.9678 132.278 18.7539C132.108 20.7042 131.814 22.4455 131.396 23.9779C130.978 25.5103 130.366 26.7176 129.561 27.5999C128.756 28.4821 127.68 28.9233 126.333 28.9233V40.3929ZM135.761 28.9233C136.396 28.0874 136.868 27.2826 137.178 26.5086C137.503 25.7347 137.743 24.8292 137.897 23.7922C138.052 22.7396 138.207 21.4007 138.362 19.7755C138.517 18.1502 138.64 16.6798 138.733 15.3641C138.826 14.0484 138.904 12.7482 138.966 11.4635C139.043 10.1788 139.136 8.77026 139.244 7.23788L149.369 7.28432V28.9233H135.761Z" fill="white"/>
<path d="M162.876 34.8206H169.377L171.491 27.8553H184.076L186.236 34.8206H192.738L182.521 1.38701H173.093L162.876 34.8206ZM173.279 21.958L177.737 7.30754L182.265 21.958H173.279Z" fill="white"/>
<path d="M64.6683 62.8691H66.4953V46.7243H75.854V44.9719H64.6683V62.8691Z" fill="white"/>
<path d="M77.1153 62.8691H79.0169L80.5083 58.5315H88.4626L89.9664 62.8691H91.868L85.7034 44.9719H83.2799L77.1153 62.8691ZM81.1049 56.8163L84.473 47.0351L87.866 56.8163H81.1049Z" fill="white"/>
<path d="M95.1066 62.8691H96.9336V56.0706H102.017C102.183 56.0706 102.377 56.0623 102.601 56.0458C102.825 56.0292 103.048 56.0043 103.272 55.9712C104.664 55.7558 105.737 55.1426 106.491 54.1318C107.253 53.1209 107.635 51.9195 107.635 50.5275C107.635 49.1272 107.258 47.9216 106.504 46.9108C105.75 45.8999 104.672 45.2868 103.272 45.0713C103.048 45.0299 102.825 45.0051 102.601 44.9968C102.386 44.9802 102.191 44.9719 102.017 44.9719H95.1066V62.8691ZM96.9336 54.3306V46.7243H101.967C102.116 46.7243 102.29 46.7326 102.489 46.7492C102.696 46.7575 102.891 46.7823 103.073 46.8238C103.993 47.0226 104.668 47.4825 105.099 48.2033C105.538 48.9159 105.758 49.6906 105.758 50.5275C105.758 51.3561 105.538 52.1308 105.099 52.8516C104.668 53.5725 103.993 54.0282 103.073 54.2188C102.891 54.2602 102.696 54.2892 102.489 54.3058C102.29 54.3223 102.116 54.3306 101.967 54.3306H96.9336Z" fill="white"/>
<path d="M109.374 62.8691H111.276L112.767 58.5315H120.722L122.225 62.8691H124.127L117.962 44.9719H115.539L109.374 62.8691ZM113.364 56.8163L116.732 47.0351L120.125 56.8163H113.364Z" fill="white"/>
<path d="M127.366 62.8691H129.193V54.7905H139.086V62.8691H140.9V44.9719H139.086V53.0381H129.193V44.9719H127.366V62.8691Z" fill="white"/>
<path d="M150.136 62.8691H151.963V46.7243H158.215V44.9719H143.885V46.7243H150.136V62.8691Z" fill="white"/>
<path d="M174.737 62.8691H172.898V48.1909L163.042 62.8691H161.202V44.9719H163.042V59.6376L172.898 44.9719H174.737V62.8691Z" fill="white"/>
<path d="M192.748 62.8691H190.908V48.1909L181.053 62.8691H179.213V44.9719H181.053V59.6376L190.908 44.9719H192.748V62.8691Z" fill="white"/>
<path d="M64.5716 84.5764H66.2971V76.9467H75.6406V84.5764H77.3544V67.6736H75.6406V75.2916H66.2971V67.6736H64.5716V84.5764Z" fill="white"/>
<path d="M80.4079 84.5764H82.2039L83.6124 80.4798H91.1248L92.5451 84.5764H94.3411L88.519 67.6736H86.23L80.4079 84.5764ZM84.1759 78.86L87.3569 69.6221L90.5614 78.86H84.1759Z" fill="white"/>
<path d="M105.891 84.5764H107.769L115.634 67.6736H113.791L108.696 78.7191L103.696 67.6736H101.783L107.793 80.5738L105.891 84.5764Z" fill="white"/>
<path d="M123.817 84.9286C125.781 84.9286 127.386 84.4278 128.63 83.4261C129.874 82.4166 130.727 81.0668 131.189 79.3765L129.428 78.9187C129.068 80.249 128.423 81.3093 127.491 82.0997C126.56 82.8822 125.335 83.2735 123.817 83.2735C122.495 83.2735 121.388 82.9722 120.495 82.3697C119.611 81.7593 118.946 80.9181 118.5 79.846C118.062 78.7739 117.847 77.5336 117.854 76.125C117.87 74.7164 118.097 73.4761 118.535 72.404C118.973 71.3241 119.631 70.4829 120.507 69.8803C121.391 69.2778 122.495 68.9765 123.817 68.9765C125.335 68.9765 126.56 69.3717 127.491 70.1621C128.423 70.9446 129.068 72.001 129.428 73.3313L131.189 72.8736C130.727 71.1833 129.874 69.8373 128.63 68.8357C127.386 67.8262 125.781 67.3214 123.817 67.3214C122.135 67.3214 120.715 67.6931 119.556 68.4366C118.398 69.18 117.522 70.2129 116.927 71.5354C116.332 72.8579 116.035 74.3878 116.035 76.125C116.035 77.8544 116.332 79.3843 116.927 80.7146C117.522 82.0371 118.398 83.0701 119.556 83.8135C120.715 84.5569 122.135 84.9286 123.817 84.9286Z" fill="white"/>
<path d="M132.395 84.5764C133.185 84.7799 133.831 84.7995 134.332 84.6351C134.84 84.4708 135.243 84.1695 135.541 83.7313C135.846 83.2931 136.085 82.7531 136.257 82.1114C136.429 81.4698 136.574 80.7733 136.691 80.0221C137.004 78.0344 137.223 76.1602 137.348 74.3995C137.481 72.6388 137.599 70.9485 137.701 69.3287H144.978V84.5764H146.704V67.6736H136.034C135.94 69.8021 135.819 71.7976 135.67 73.66C135.529 75.5146 135.31 77.3653 135.013 79.2121C134.833 80.3546 134.653 81.2115 134.473 81.7828C134.293 82.3462 134.046 82.7101 133.733 82.8744C133.42 83.0388 132.974 83.0935 132.395 83.0388V84.5764Z" fill="white"/>
<path d="M153.775 84.5764H155.653L163.518 67.6736H161.675L156.581 78.7191L151.58 67.6736H149.667L155.677 80.5738L153.775 84.5764Z" fill="white"/>
<path d="M166.489 84.5764H168.214V69.3287H177.053V67.6736H166.489V84.5764Z" fill="white"/>
<path d="M192.659 84.5764H190.922V70.7138L181.614 84.5764H179.876V67.6736H181.614V81.5245L190.922 67.6736H192.659V84.5764Z" fill="white"/>
</svg>
