<svg width="32" height="32" viewBox="0 0 32 32" fill="none" xmlns="http://www.w3.org/2000/svg">
<path d="M14.8118 0.0224519C14.7092 0.035272 14.3436 0.0801424 14.01 0.118603C11.2199 0.432696 8.43616 1.59933 6.05652 3.43901C5.35097 3.98387 3.95911 5.37485 3.41391 6.07996C1.6372 8.37476 0.559631 10.8939 0.110643 13.8105C-0.0368811 14.772 -0.0368811 17.2463 0.110643 18.2078C0.829024 22.8679 3.2728 26.7588 7.08278 29.31C9.19944 30.7266 11.3738 31.5407 14.0421 31.9189C14.908 32.0407 17.2684 32.0215 18.2113 31.8869C20.6037 31.5343 22.9 30.6561 24.8499 29.3549C28.8074 26.7075 31.2383 22.7846 31.9182 17.9642C32.0273 17.2142 32.0273 14.8041 31.9182 14.0541C31.3345 9.90676 29.4103 6.362 26.3572 3.78516C24.0674 1.84932 21.2131 0.567307 18.2433 0.144243C17.5506 0.0416821 15.2479 -0.0416487 14.8118 0.0224519ZM18.0188 4.82359C20.36 5.09922 22.3548 5.76587 23.535 6.66328C24.9268 7.72735 25.7607 9.59267 26.1712 12.6118C26.3251 13.7272 26.3251 16.195 26.1712 17.2591C25.812 19.7719 25.0295 21.4962 23.8429 22.4128C22.9449 23.1051 21.4376 23.7204 19.8469 24.041C18.455 24.323 17.5314 24.4191 15.8445 24.4512L14.2409 24.4768L13.0671 25.8486C12.1371 26.9319 11.8421 27.2332 11.6625 27.2909C11.2327 27.4319 10.7837 27.2396 10.5656 26.8229C10.4758 26.6434 10.4694 26.4383 10.5015 25.2076L10.54 23.7974L9.91782 23.5602C8.39767 22.9769 7.48687 22.1949 6.83263 20.9128C5.60112 18.5027 5.32532 14.1502 6.18481 10.5798C6.67869 8.51578 7.44839 7.17608 8.5901 6.35559C9.75747 5.52869 11.7972 4.91974 14.0421 4.72744C14.9721 4.65052 16.9733 4.7018 18.0188 4.82359Z" fill="#505A2B"/>
<path d="M14.1191 6.32995C12.0024 6.52225 10.2385 7.06711 9.32131 7.8235C7.13409 9.6119 6.55683 17.1053 8.35278 20.368C8.67348 20.9577 9.19303 21.4385 9.87934 21.791C10.1936 21.9513 10.6041 22.1308 10.7901 22.1949L11.1237 22.3038V24.3743C11.1237 26.0986 11.1365 26.4575 11.2135 26.5216C11.2712 26.5665 11.3482 26.5729 11.3995 26.5409C11.4508 26.5152 12.2012 25.6819 13.0671 24.6884L14.645 22.8871L16.0433 22.8487C18.6025 22.7718 20.5845 22.3743 22.0918 21.6372C22.823 21.2718 23.3939 20.7141 23.7466 20.0154C25.2219 17.0732 24.9525 11.0798 23.2399 8.63757C22.4638 7.53504 20.6679 6.78507 17.9547 6.4261C17.0247 6.30431 14.9786 6.25303 14.1191 6.32995ZM17.0952 8.90039C18.5961 9.31704 19.725 10.2209 20.4498 11.5926C20.9116 12.4644 21.2387 13.7464 21.181 14.4387C21.1682 14.6502 21.1361 14.7015 21.0142 14.7143C20.7897 14.7464 20.6807 14.6182 20.6807 14.3105C20.6807 13.9259 20.5139 13.099 20.3279 12.5477C19.7058 10.708 18.1215 9.45165 16.1716 9.24012C15.7418 9.19525 15.6135 9.13115 15.6135 8.96449C15.6135 8.9068 15.652 8.81705 15.6969 8.77218C15.7996 8.66321 16.4666 8.72731 17.0952 8.90039ZM12.5989 9.63754C13.1634 10.1119 14.2024 11.6824 14.2538 12.1375C14.2987 12.5285 14.196 12.7208 13.7214 13.1438C13.2083 13.6054 13.1634 13.7592 13.3943 14.3618C13.9715 15.9002 15.2159 17.1309 16.6462 17.5796C16.9798 17.6886 17.0182 17.6886 17.2299 17.586C17.3582 17.5219 17.5955 17.304 17.7623 17.0989C18.1086 16.6501 18.3909 16.5348 18.8206 16.6501C19.1862 16.7463 20.3792 17.5604 20.8924 18.0604C21.2772 18.4386 21.3221 18.5091 21.3221 18.7334C21.3221 19.0988 21.0335 19.6244 20.5845 20.0795C19.9816 20.6949 19.4941 20.8552 18.8783 20.6564C18.3139 20.4705 17.0439 19.8488 16.2421 19.3616C13.4969 17.695 12.0601 15.9707 10.5849 12.5926C10.0718 11.4195 10.1102 11.0221 10.7837 10.2978C11.4957 9.52857 12.1756 9.28499 12.5989 9.63754ZM17.2427 10.6311C18.5127 11.0606 19.5262 12.4516 19.5262 13.7784C19.5262 14.1118 19.4684 14.1823 19.2375 14.1246C19.1157 14.0925 19.0772 14.0284 19.0451 13.8425C18.8912 12.8298 18.6154 12.2208 18.083 11.7208C17.6917 11.349 17.2491 11.1311 16.6719 11.0093C16.2485 10.926 16.1267 10.8555 16.1267 10.6952C16.1267 10.4003 16.4795 10.3811 17.2427 10.6311ZM17.0567 12.0605C17.6148 12.3169 17.9739 12.7721 18.1151 13.4131C18.192 13.772 18.1215 13.9131 17.8649 13.881C17.7366 13.8682 17.6917 13.8105 17.634 13.5733C17.4736 12.9515 17.1914 12.6375 16.6398 12.4516C16.3576 12.3554 16.3191 12.3234 16.3191 12.1631C16.3191 11.8682 16.5693 11.8298 17.0567 12.0605Z" fill="#505A2B"/>
</svg>
