<svg width="82" height="35" fill="none" xmlns="http://www.w3.org/2000/svg"><path d="M8.208 16.905c3.524 0 5.548-1.556 7.049-3.669l-3.32-2.415c-.955 1.184-1.933 1.974-3.592 1.974-2.229 0-3.798-1.904-3.798-4.342 0-2.415 1.57-4.343 3.798-4.343 1.523 0 2.592.72 3.501 1.881l3.229-2.554C13.665 1.44 11.64 0 8.39 0 3.57 0 0 3.715 0 8.453c0 4.9 3.66 8.452 8.208 8.452ZM35.229 16.58h12.119v-3.948H39.64V.325h-4.411V16.58ZM56.333 16.905c4.91 0 8.594-3.785 8.594-8.452C64.927 3.739 61.29 0 56.378 0s-8.594 3.785-8.594 8.453c0 4.713 3.638 8.452 8.549 8.452Zm.045-4.064c-2.41 0-4.07-2.043-4.07-4.388 0-2.392 1.615-4.39 4.025-4.39 2.433 0 4.092 2.044 4.092 4.39 0 2.391-1.614 4.388-4.047 4.388ZM67.225 16.58h4.411v-4.923h1.933l3.206 4.923h5.093l-3.797-5.666c1.978-.86 3.274-2.508 3.274-4.993 0-1.648-.478-2.902-1.41-3.854C78.866.975 77.184.325 74.751.325h-7.526V16.58Zm4.411-8.453v-3.9h2.888c1.478 0 2.387.65 2.387 1.927 0 1.23-.864 1.973-2.365 1.973h-2.91ZM24.99 16.905c4.91 0 8.594-3.785 8.594-8.452 0-4.714-3.638-8.453-8.55-8.453-4.91 0-8.594 3.785-8.594 8.453 0 4.713 3.638 8.452 8.55 8.452Zm.045-4.064c-2.41 0-4.07-2.043-4.07-4.388 0-2.392 1.614-4.39 4.024-4.39 2.433 0 4.093 2.044 4.093 4.39 0 2.391-1.614 4.388-4.047 4.388ZM0 34.537h3.977v-4.115h1.968c3.567 0 6.17-1.79 6.17-5.184 0-3.23-2.336-5.103-5.965-5.103H0v14.402Zm3.977-7.242v-3.806h1.866c1.435 0 2.296.658 2.296 1.893 0 1.172-.861 1.913-2.276 1.913H3.977ZM13.794 34.537H24.72V31.04h-6.95V20.135h-3.976v14.402ZM32.483 34.804c4.08 0 6.724-2.036 6.724-6.686v-7.983H35.17v8.106c0 2.017-1.046 2.963-2.645 2.963s-2.644-.988-2.644-3.066v-8.003H25.84v8.086c0 4.506 2.563 6.583 6.642 6.583ZM47.198 34.784c3.486 0 5.802-1.749 5.802-4.69 0-2.737-2.05-3.807-5.35-4.527-1.99-.453-2.481-.74-2.481-1.4 0-.555.471-.966 1.435-.966 1.271 0 2.706.494 4.018 1.42l1.989-2.82c-1.558-1.254-3.465-1.913-5.904-1.913-3.445 0-5.556 1.934-5.556 4.609 0 3.004 2.357 3.868 5.412 4.567 1.947.453 2.419.782 2.419 1.379 0 .658-.574 1.028-1.64 1.028-1.66 0-3.24-.596-4.654-1.728l-2.214 2.654c1.763 1.585 4.182 2.387 6.724 2.387Z" fill="#fff"/><path fill-rule="evenodd" clip-rule="evenodd" d="M82 19.888H56.317v3.644h3.136c1.85 0 3.042 1.017 3.042 2.772 0 1.844-1.327 2.817-3.146 2.817h-1.004v2.235h-2.028V35H82V19.888Zm-3.502 7.556c0 2.247-1.694 4.069-3.952 4.069-2.259 0-3.931-1.8-3.931-4.069 0-2.246 1.694-4.068 3.952-4.068s3.93 1.8 3.93 4.068Zm-5.803 0c0 1.13.764 2.113 1.872 2.113 1.118 0 1.86-.962 1.86-2.113 0-1.129-.763-2.112-1.881-2.112-1.108 0-1.85.96-1.85 2.112Zm-14.35-.022v-2.068h.951c.732 0 1.171.358 1.171 1.028 0 .637-.439 1.04-1.16 1.04h-.962Zm5.006 3.934h2.028v-2.37h.89l1.473 2.37h2.342l-1.746-2.727c.91-.414 1.506-1.207 1.506-2.403 0-.794-.22-1.397-.648-1.856-.492-.525-1.266-.838-2.384-.838h-3.46v7.824Zm2.028-4.068V25.41h1.328c.68 0 1.098.313 1.098.928 0 .592-.397.95-1.087.95h-1.339Z" fill="#98B61D"/></svg>