<svg width="175" height="17" viewBox="0 0 175 17" fill="none" xmlns="http://www.w3.org/2000/svg">
<path d="M8.20811 17C11.7324 17 13.756 15.4354 15.2566 13.3104L11.937 10.8819C10.982 12.0728 10.0043 12.8668 8.34454 12.8668C6.1163 12.8668 4.54743 10.9519 4.54743 8.5C4.54743 6.07143 6.1163 4.13324 8.34454 4.13324C9.86793 4.13324 10.9366 4.85714 11.8461 6.02473L15.0747 3.45604C13.665 1.4478 11.6414 0 8.39001 0C3.56973 0 0 3.73626 0 8.5C0 13.4272 3.66068 17 8.20811 17Z" fill="white"/>
<path d="M35.2287 16.6731H47.3476V12.7033H39.6397V0.326923H35.2287V16.6731Z" fill="white"/>
<path d="M56.3327 17C61.2439 17 64.9274 13.1937 64.9274 8.5C64.9274 3.75962 61.2894 0 56.3782 0C51.467 0 47.7836 3.80632 47.7836 8.5C47.7836 13.2404 51.4215 17 56.3327 17ZM56.3782 12.9135C53.9681 12.9135 52.3083 10.8585 52.3083 8.5C52.3083 6.09478 53.9226 4.08654 56.3327 4.08654C58.7656 4.08654 60.4254 6.14148 60.4254 8.5C60.4254 10.9052 58.8111 12.9135 56.3782 12.9135Z" fill="white"/>
<path d="M67.2251 16.6731H71.6361V11.7225H73.5687L76.7747 16.6731H81.8678L78.0707 10.9753C80.0488 10.1113 81.3448 8.4533 81.3448 5.95467C81.3448 4.2967 80.8674 3.03571 79.9351 2.0783C78.8665 0.980769 77.1839 0.326923 74.7511 0.326923H67.2251V16.6731ZM71.6361 8.17308V4.25H74.5237C76.0016 4.25 76.9111 4.90385 76.9111 6.18819C76.9111 7.42582 76.0471 8.17308 74.5464 8.17308H71.6361Z" fill="white"/>
<path d="M83.5674 16.6731H87.9784V12.0027H90.1612C94.1174 12.0027 97.0051 9.97115 97.0051 6.11813C97.0051 2.45192 94.413 0.326923 90.3885 0.326923H83.5674V16.6731ZM87.9784 8.4533V4.13324H90.0475C91.6391 4.13324 92.594 4.8805 92.594 6.28159C92.594 7.61264 91.6391 8.4533 90.0702 8.4533H87.9784Z" fill="white"/>
<path d="M98.8661 16.6731H110.985V12.7033H103.277V0.326923H98.8661V16.6731Z" fill="white"/>
<path d="M119.595 16.9766C124.12 16.9766 127.053 14.6648 127.053 9.38736V0.326923H122.574V9.52747C122.574 11.8159 121.414 12.8901 119.641 12.8901C117.867 12.8901 116.708 11.7692 116.708 9.41071V0.326923H112.228V9.50412C112.228 14.6181 115.07 16.9766 119.595 16.9766Z" fill="white"/>
<path d="M135.916 16.9533C139.781 16.9533 142.351 14.9684 142.351 11.6291C142.351 8.52335 140.077 7.30907 136.416 6.49176C134.211 5.97802 133.665 5.6511 133.665 4.90385C133.665 4.27335 134.188 3.80632 135.257 3.80632C136.666 3.80632 138.258 4.36676 139.713 5.41758L141.919 2.21841C140.191 0.793957 138.076 0.0467041 135.37 0.0467041C131.551 0.0467041 129.209 2.24176 129.209 5.27747C129.209 8.68681 131.823 9.66758 135.211 10.4615C137.371 10.9753 137.894 11.3489 137.894 12.0261C137.894 12.7734 137.258 13.1937 136.075 13.1937C134.234 13.1937 132.483 12.5165 130.914 11.2321L128.458 14.2445C130.414 16.0426 133.097 16.9533 135.916 16.9533Z" fill="white"/>
<path d="M24.9895 17C29.9007 17 33.5841 13.1937 33.5841 8.5C33.5841 3.75962 29.9462 0 25.0349 0C20.1237 0 16.4403 3.80632 16.4403 8.5C16.4403 13.2404 20.0782 17 24.9895 17ZM25.0349 12.9135C22.6248 12.9135 20.965 10.8585 20.965 8.5C20.965 6.09478 22.5793 4.08654 24.9895 4.08654C27.4223 4.08654 29.0821 6.14148 29.0821 8.5C29.0821 10.9052 27.4678 12.9135 25.0349 12.9135Z" fill="white"/>
<path fill-rule="evenodd" clip-rule="evenodd" d="M175 0H146.269V4.0991H149.777C151.847 4.0991 153.181 5.24333 153.181 7.21744C153.181 9.29215 151.695 10.3861 149.66 10.3861H148.538V12.9009H146.269V17H175V0ZM171.082 8.49999C171.082 11.0274 169.187 13.0769 166.661 13.0769C164.135 13.0769 162.264 11.0525 162.264 8.49999C162.264 5.97262 164.158 3.92307 166.685 3.92307C169.211 3.92307 171.082 5.94747 171.082 8.49999ZM164.591 8.49999C164.591 9.76996 165.445 10.8765 166.685 10.8765C167.936 10.8765 168.766 9.79511 168.766 8.49999C168.766 7.23002 167.913 6.12351 166.661 6.12351C165.421 6.12351 164.591 7.20487 164.591 8.49999ZM148.538 8.47484V6.14866H149.602C150.421 6.14866 150.912 6.55102 150.912 7.30546C150.912 8.02218 150.421 8.47484 149.614 8.47484H148.538ZM154.138 12.9009H156.407V10.2352H157.401L159.05 12.9009H161.67L159.717 9.83283C160.734 9.36759 161.401 8.47484 161.401 7.12943C161.401 6.23667 161.155 5.55768 160.676 5.04215C160.126 4.45117 159.261 4.0991 158.009 4.0991H154.138V12.9009ZM156.407 8.32395V6.21153H157.892C158.653 6.21153 159.12 6.5636 159.12 7.25517C159.12 7.92159 158.676 8.32395 157.904 8.32395H156.407Z" fill="#98B61D"/>
</svg>
