<svg width="20" height="20" viewBox="0 0 20 20" fill="none" xmlns="http://www.w3.org/2000/svg">
<path d="M10 20C15.5228 20 20 15.5228 20 10C20 4.47715 15.5228 0 10 0C4.47715 0 0 4.47715 0 10C0 15.5228 4.47715 20 10 20Z" fill="#D15F5F"/>
<path d="M3.44604 6.11261V13.8791L7.23346 9.98015L3.44604 6.11261Z" fill="white"/>
<path d="M16.5542 6.11261V13.8791L12.7856 9.99585L16.5542 6.11261Z" fill="white"/>
<path d="M3.73291 5.76038H16.2429L11.3263 10.8798C10.9763 11.2442 10.493 11.4501 9.98791 11.4501C9.48279 11.4501 8.99947 11.2442 8.64955 10.8798L3.73291 5.76038Z" fill="white"/>
<path d="M11.6099 11.1522C11.1881 11.5914 10.5969 11.8433 9.98791 11.8433C9.37897 11.8433 8.78775 11.5915 8.36596 11.1522L7.53201 10.2838L3.73291 14.2396H16.2429L12.4438 10.2838L11.6099 11.1522Z" fill="white"/>
</svg>
