<svg xmlns="http://www.w3.org/2000/svg" width="14" height="10" fill="none"><path fill="#EC7225" d="M13.968.973c-.09-.476-.508-.868-1.015-.952-.18-.028-11.754-.028-11.919 0-.493.098-.896.476-1 .952-.045.182-.045 7.865 0 8.047.09.476.507.868 1.015.952.105.014 3.032.028 5.944.028 2.913 0 5.84-.014 5.944-.028.508-.084.927-.476 1.016-.952.06-.182.06-7.865.015-8.047Zm-.896 4.03v3.513L9.323 4.99l1.897-1.777 1.852-1.735v3.526Zm-8.364-.027L.93 8.516v-7.04l.03.015 1.956 1.805 1.792 1.68Zm-1.254 2.42c.97-.909 1.762-1.637 1.926-1.79.09.083.344.307.658.601.328.308.716.658.791.7.135.07.269.07.403.014.075-.028.508-.434.792-.686l.642-.602 3.749 3.513H1.602l1.852-1.75ZM6.68 5.592c-.21-.196-1.494-1.371-2.793-2.589L1.587.861H12.4L7.023 5.899l-.343-.308Z"/></svg>