<svg width="13" height="13" viewBox="0 0 13 13" fill="none" xmlns="http://www.w3.org/2000/svg">
<path d="M6.49999 3.79165C5.00662 3.79165 3.79165 5.00662 3.79165 6.49999C3.79165 7.99336 5.00662 9.20832 6.49999 9.20832C7.99336 9.20832 9.20832 7.99336 9.20832 6.49999C9.20832 5.00662 7.99336 3.79165 6.49999 3.79165ZM6.49999 8.66664C5.30508 8.66664 4.33334 7.69489 4.33334 6.49999C4.33334 5.30508 5.30508 4.33334 6.49999 4.33334C7.69489 4.33334 8.66664 5.30508 8.66664 6.49999C8.66664 7.69489 7.69489 8.66664 6.49999 8.66664Z" fill="#B1A99A"/>
<path d="M4.06249 0H1.35415C0.607215 0 0 0.607748 0 1.35415V4.06249C0 4.21199 0.121341 4.33333 0.270841 4.33333C0.42034 4.33333 0.541656 4.21199 0.541656 4.06249V1.35415C0.541656 0.906189 0.906189 0.541656 1.35415 0.541656H4.06249C4.21199 0.541656 4.33333 0.420315 4.33333 0.270816C4.33333 0.121316 4.21199 0 4.06249 0Z" fill="#B1A99A"/>
<path d="M11.6458 0H8.93749C8.78799 0 8.66665 0.121341 8.66665 0.270841C8.66665 0.42034 8.78799 0.541656 8.93749 0.541656H11.6458C12.0938 0.541656 12.4583 0.906189 12.4583 1.35415V4.06249C12.4583 4.21199 12.5797 4.33333 12.7292 4.33333C12.8787 4.33333 13 4.21199 13 4.06249V1.35415C13 0.607748 12.3928 0 11.6458 0Z" fill="#B1A99A"/>
<path d="M4.06249 12.4583H1.35415C0.906189 12.4583 0.541656 12.0938 0.541656 11.6458V8.93749C0.541656 8.78799 0.420315 8.66665 0.270816 8.66665C0.121316 8.66665 0 8.78799 0 8.93749V11.6458C0 12.3922 0.607215 13 1.35415 13H4.06249C4.21199 13 4.33333 12.8786 4.33333 12.7291C4.33333 12.5796 4.21199 12.4583 4.06249 12.4583Z" fill="#B1A99A"/>
<path d="M12.7291 8.66665C12.5796 8.66665 12.4583 8.78799 12.4583 8.93749V11.6458C12.4583 12.0938 12.0938 12.4583 11.6458 12.4583H8.93749C8.78799 12.4583 8.66665 12.5797 8.66665 12.7292C8.66665 12.8787 8.78799 13 8.93749 13H11.6458C12.3928 13 13 12.3922 13 11.6458V8.93749C13 8.78799 12.8786 8.66665 12.7291 8.66665Z" fill="#B1A99A"/>
</svg>
