<svg width="15" height="15" viewBox="0 0 15 15" fill="none" xmlns="http://www.w3.org/2000/svg">
<path d="M10.3125 10.6793C10.1507 10.6793 10.0195 10.8176 10.0195 10.988C10.0195 11.1584 10.1507 11.2966 10.3125 11.2966C10.4742 11.2966 10.6055 11.1584 10.6055 10.988C10.6055 10.8176 10.4742 10.6793 10.3125 10.6793Z" fill="#B1A99A"/>
<path d="M7.79297 5.24713C7.79297 5.07665 7.66171 4.93848 7.5 4.93848C7.3383 4.93848 7.20703 5.07665 7.20703 5.24713C7.20703 5.4175 7.3383 5.55579 7.5 5.55579C7.66171 5.55579 7.79297 5.4175 7.79297 5.24713Z" fill="#B1A99A"/>
<path d="M4.68751 11.2966C4.84921 11.2966 4.98048 11.1584 4.98048 10.988C4.98048 10.8176 4.84921 10.6793 4.68751 10.6793C4.5258 10.6793 4.39454 10.8176 4.39454 10.988C4.39454 11.1584 4.5258 11.2966 4.68751 11.2966Z" fill="#B1A99A"/>
<path d="M14.8259 12.7634L13.2421 12.022V5.24713C13.2421 5.12488 13.1726 5.01166 13.0622 4.96223L7.79297 2.57462V0.308655C7.79297 0.138171 7.6617 0 7.5 0C7.33818 0 7.20703 0.138171 7.20703 0.308655V2.57462L1.93784 4.96223C1.83313 5.00805 1.75794 5.11981 1.75794 5.24713V12.022L0.174079 12.7634C0.0262216 12.8327 -0.0403828 13.015 0.0253061 13.1708C0.0905373 13.3256 0.263114 13.3972 0.412001 13.3275L2.05274 12.5595L7.3843 14.9753C7.4548 15.0073 7.54097 15.0092 7.61581 14.9753L12.9473 12.5595L14.588 13.3275C14.7375 13.3974 14.9097 13.325 14.9747 13.1708C15.0404 13.015 14.9738 12.8327 14.8259 12.7634ZM7.20703 3.24666V4.01251C7.20703 4.18288 7.33818 4.32117 7.5 4.32117C7.6617 4.32117 7.79297 4.18288 7.79297 4.01251V3.24666L12.2076 5.24713L7.5 7.38035L2.79237 5.24713L7.20703 3.24666ZM3.88448 11.3642C3.81867 11.2084 3.64552 11.1383 3.49778 11.2074L2.34376 11.7477V5.71578L7.20703 7.91953V14.2231L2.78218 12.218L3.7357 11.7717C3.88356 11.7024 3.95016 11.5199 3.88448 11.3642ZM7.79297 14.2231V7.91953L12.6561 5.71578V11.7477L11.5022 11.2075C11.3542 11.1383 11.1812 11.2084 11.1155 11.3643C11.0498 11.5201 11.1164 11.7024 11.2643 11.7717L12.2178 12.218L7.79297 14.2231Z" fill="#B1A99A"/>
</svg>
