<svg width="15" height="15" viewBox="0 0 15 15" fill="none" xmlns="http://www.w3.org/2000/svg">
<path d="M7.5 0C3.36667 0 0 3.36667 0 7.5C0 11.6333 3.36667 15 7.5 15C11.6333 15 15 11.6333 15 7.5C15 3.36667 11.6333 0 7.5 0ZM7.8 14.3667C7.16667 14.3667 7.8 14.3667 7.16667 14.3667C3.63333 14.2 0.766667 11.3667 0.633334 7.83333C0.633334 7.2 0.633334 7.83333 0.633334 7.2C0.800001 3.66667 3.63333 0.8 7.16667 0.666667C7.8 0.666667 7.16667 0.666667 7.8 0.666667C11.3333 0.833333 14.2 3.66667 14.3333 7.2C14.3333 7.83333 14.3333 7.2 14.3333 7.83333C14.2 11.3667 11.3667 14.2 7.8 14.3667Z" fill="#B1A99A"/>
<path d="M8.1 7.66667C8.1 7.6 8.13333 7.56667 8.13333 7.5C8.13333 7.36667 8.1 7.26667 8 7.16667L9.96667 2.96667C10.0333 2.8 9.96667 2.63333 9.8 2.56667C9.63333 2.5 9.46667 2.56667 9.4 2.73333L7.43333 6.93333C7.13333 6.96667 6.86667 7.23333 6.86667 7.53333C6.86667 7.86667 7.13333 8.16667 7.5 8.16667C7.56667 8.16667 7.6 8.13333 7.66667 8.13333L10.1 10.5667C10.1667 10.6333 10.2333 10.6667 10.3333 10.6667C10.4 10.6667 10.5 10.6333 10.5667 10.5667C10.7 10.4333 10.7 10.2333 10.5667 10.1333L8.1 7.66667Z" fill="#B1A99A"/>
</svg>
