<svg width="31" height="31" fill="none" xmlns="http://www.w3.org/2000/svg"><path d="M29.395 21.05a5.825 5.825 0 0 1-5.193.746.515.515 0 0 0-.473.066l-2.324 1.654.598.845 2.109-1.503a6.88 6.88 0 0 0 5.86-.95c.304-.206.593-.435.863-.685l-.7-.762a6.239 6.239 0 0 1-.74.589Z" fill="#40382A"/><path d="M24.194 13.316a4.707 4.707 0 0 0-1.71 1.94 4.727 4.727 0 0 0-.429 2.554l-6.548 4.211-6.549-4.209a4.705 4.705 0 0 0-2.14-4.493 4.926 4.926 0 0 0-3.368-.843 3.812 3.812 0 0 0-2.796 1.672 3.842 3.842 0 0 0-.499 3.228 4.95 4.95 0 0 0 2.041 2.815 4.664 4.664 0 0 0 4.959.308l5.083 3.62L7.4 27.233a2.028 2.028 0 0 0-.9 2.109 2.034 2.034 0 0 0 2.43 1.59c.264-.059.513-.17.734-.327l5.842-4.157 5.843 4.16a2.026 2.026 0 0 0 3.192-1.258 2.043 2.043 0 0 0-.925-2.118l-4.843-3.11L23.86 20.5a4.66 4.66 0 0 0 4.959-.306c2.123-1.438 2.816-4.15 1.544-6.047-1.272-1.897-4.041-2.268-6.169-.83ZM9.066 29.76a1.017 1.017 0 0 1-1.4-.257.997.997 0 0 1 .29-1.399l5.19-3.34 1.466 1.044-5.546 3.952Zm14.432-1.017a1.003 1.003 0 0 1-.43 1.039.995.995 0 0 1-1.123-.021L7.463 19.448a.516.516 0 0 0-.604.005 3.57 3.57 0 0 1-4.085-.121 3.918 3.918 0 0 1-1.62-2.223 2.808 2.808 0 0 1 1.254-3.231 2.78 2.78 0 0 1 1.174-.376 3.896 3.896 0 0 1 2.66.674 3.603 3.603 0 0 1 1.64 3.756.52.52 0 0 0 .222.563l14.955 9.61a.99.99 0 0 1 .439.639Zm4.741-9.413a3.572 3.572 0 0 1-4.086.12.515.515 0 0 0-.603-.005l-5.714 4.07-1.37-.88 6.443-4.146a.518.518 0 0 0 .222-.563 3.62 3.62 0 0 1 1.642-3.755c1.652-1.118 3.777-.872 4.733.548.954 1.42.386 3.493-1.267 4.61ZM5.657.95 5.084.086a6.735 6.735 0 0 0-2.658 3.478 6.759 6.759 0 0 0 .036 4.383l.973-.346a5.719 5.719 0 0 1-.03-3.709A5.698 5.698 0 0 1 5.657.95ZM4.53 9.467a5.765 5.765 0 0 1-.658-.916l-.894.518c.223.386.484.749.778 1.084l.774-.686Z" fill="#40382A"/><path d="m21.179 17.724 1.47-7.377a4.643 4.643 0 0 0 3.095-1.574 4.674 4.674 0 0 0-.296-6.454 4.64 4.64 0 0 0-3.226-1.283 4.581 4.581 0 0 0-2.876 1.003A4.646 4.646 0 0 0 15.507 0a4.629 4.629 0 0 0-3.838 2.04 4.58 4.58 0 0 0-2.876-1.004 4.64 4.64 0 0 0-3.211 1.291 4.671 4.671 0 0 0-.296 6.437 4.644 4.644 0 0 0 3.08 1.581l1.47 7.38 1.012-.204-.289-1.455h9.897l-.29 1.451 1.013.207Zm-2.493-2.695.432-3.036-1.023-.147-.453 3.183h-1.618v-5.7H14.99v5.7h-1.618l-.453-3.183-1.023.147.432 3.036h-1.976L9.299 9.743a.519.519 0 0 0-.506-.414 3.61 3.61 0 0 1-2.557-1.063 3.634 3.634 0 0 1 0-5.13 3.61 3.61 0 0 1 3.988-.768 3.58 3.58 0 0 1 1.194.845.516.516 0 0 0 .84-.13 3.6 3.6 0 0 1 6.499 0 .517.517 0 0 0 .84.13 3.58 3.58 0 0 1 2.625-1.14 3.61 3.61 0 0 1 2.557 1.063 3.634 3.634 0 0 1 0 5.13 3.61 3.61 0 0 1-2.557 1.063.515.515 0 0 0-.506.414l-1.054 5.286h-1.976Z" fill="#40382A"/></svg>