<svg width="28" height="26" fill="none" xmlns="http://www.w3.org/2000/svg"><path d="M4.621.181C3.555.438 2.565 1.248 2.078 2.254c-.4.831-.383.607-.383 5.873v4.72l-.262.306a5.99 5.99 0 0 0-1.378 3.101C.01 16.549 0 17.911.01 20.47l.016 3.774.208.416c.235.48.585.83 1.067 1.066.284.142.366.153.913.153.541 0 .634-.016.919-.148a2.44 2.44 0 0 0 1.088-1.077c.158-.328.175-.421.197-1.006l.022-.64h19.118l.022.645c.022.58.038.673.197 1.001.208.438.645.87 1.088 1.077.285.132.378.148.92.148.546 0 .628-.01.912-.153a2.244 2.244 0 0 0 1.067-1.066l.208-.416.016-3.8c.011-3.167 0-3.895-.066-4.327-.18-1.16-.7-2.253-1.449-3.073l-.279-.306V8.095c0-4.474-.005-4.665-.11-5.08a3.822 3.822 0 0 0-2.1-2.56c-.808-.383-.13-.361-10.072-.356C6.282.105 4.9.116 4.62.181Zm18.463 1.094c.164.05.415.153.568.23.34.17.94.77 1.132 1.137.323.596.318.547.318 5.064 0 2.28-.006 4.146-.017 4.146-.005 0-.208-.099-.448-.22-.24-.12-.465-.218-.503-.218-.055 0-.072-.235-.072-1.028 0-1.192-.049-1.526-.306-2.078-.213-.47-.804-1.094-1.258-1.334-.58-.312-.667-.318-3.768-.318-3.128 0-3.111 0-3.757.34a3.318 3.318 0 0 0-.645.492L14 7.816l-.323-.323a2.932 2.932 0 0 0-1.258-.75c-.437-.125-5.83-.13-6.321-.005-.46.12-.82.334-1.247.733-.29.274-.421.449-.585.793-.28.585-.329.897-.329 2.111v1.023l-.224.07c-.12.045-.383.17-.574.28l-.35.208V7.728c0-3.724.011-4.26.088-4.522a2.835 2.835 0 0 1 1.826-1.893l.356-.12 8.864-.005c7.99 0 8.893.01 9.16.087ZM12.44 7.925c.34.175.706.563.864.908.104.224.12.372.137 1.198l.022.94-4.096.022c-2.248.011-4.145.038-4.211.066l-.126.038v-.87c0-.935.06-1.28.301-1.651.213-.34.623-.656 1.012-.777.076-.022 1.416-.038 2.98-.032l2.844.01.273.148Zm9.478-.022c.383.203.694.525.864.903.153.328.158.371.175 1.318l.022.978-.132-.043c-.07-.028-1.968-.055-4.216-.066l-4.096-.022.022-.94c.016-.826.033-.974.136-1.198.214-.465.684-.88 1.165-1.034.077-.022 1.417-.038 2.98-.032l2.845.01.235.126Zm.503 4.222c1.241.131 2.362.678 3.166 1.564.378.416.569.7.826 1.236.383.798.454 1.165.481 2.516l.022 1.187-5.71.032-.158.18c-.219.241-.219.51 0 .728l.159.159h5.698v2.187H1.094v-2.187H8.63c8.334 0 7.705.027 7.83-.356a.537.537 0 0 0-.327-.667c-.142-.05-2.013-.066-7.624-.066l-7.426-.005.022-1.22c.027-1.12.038-1.252.175-1.7.41-1.368 1.236-2.39 2.45-3.035a5.221 5.221 0 0 1 1.766-.547c.667-.072 16.253-.072 16.926-.006ZM3.336 23.473c0 .683-.164 1.006-.624 1.241-.322.164-.825.12-1.132-.093-.344-.246-.453-.503-.475-1.11l-.022-.503h2.253v.465Zm23.56.038c-.023.607-.132.864-.477 1.11-.306.213-.809.257-1.131.093-.46-.235-.624-.558-.624-1.241v-.465h2.253l-.022.503Z" fill="#40382A"/><path d="M18.555 18.677c-.186.027-.399.317-.399.541 0 .273.246.509.53.509.41 0 .646-.356.493-.728a.695.695 0 0 0-.142-.23.916.916 0 0 0-.482-.092Z" fill="#40382A"/></svg>