<svg width="31" height="28" fill="none" xmlns="http://www.w3.org/2000/svg"><path d="M11.952.038a.48.48 0 0 0-.242.15c-.11.115-.115.357-.133 5.444-.007 2.922 0 5.408.018 5.517.018.109.09.253.157.32.115.114.267.114 7.532.114 7.302 0 7.417 0 7.538-.12a.657.657 0 0 0 .152-.254c.018-.078.024-2.565.018-5.522L26.974.303l-.14-.139c-.133-.132-.175-.139-1.52-.157C24.19-.01 23.893.001 23.717.08c-.236.096-.327.283-.26.555.066.248.351.326 1.199.326h.738l-.775.785H13.95L13.175.96l4.529-.012L22.233.93l.145-.17c.182-.21.182-.355 0-.567l-.145-.169-5.08-.006c-2.791-.006-5.134 0-5.201.019Zm.987 1.961.381.374v6.832l-.847.833V5.832c0-2.312.018-4.207.042-4.207.024 0 .218.169.424.374Zm13.157 3.833v4.206l-.848-.833v-6.82l.375-.38c.206-.211.4-.38.424-.38.024 0 .049 1.895.049 4.207Zm-1.768-1.473c.006.923-.006 1.672-.037 1.66-.024-.006-.339-.338-.702-.73-.363-.393-.739-.755-.848-.81-.266-.144-.853-.138-1.15.007-.157.078-.66.591-1.508 1.527C18.866 7.359 18.8 7.419 18.71 7.31c-.406-.519-1.526-1.678-1.707-1.768-.267-.139-.751-.151-1.042-.03-.127.054-.496.404-.95.905l-.751.827-.018-2.221c-.006-1.22 0-2.257.018-2.3.018-.06 1.053-.072 5.037-.06l5.014.018.018 1.678Zm-1.932.99c.067.06.533.555 1.03 1.104l.908.996.006.736v.743h-4.166l-.744-.84 1.156-1.285c.642-.706 1.229-1.346 1.308-1.424.181-.163.333-.169.502-.03Zm-4.601 2.293 1.162 1.286h-4.729v-.151c0-.103.291-.465 1.042-1.298.908-1.008 1.06-1.152 1.205-1.134.12.012.43.313 1.32 1.297Zm7.598 3.036H13.175l.835-.845h10.548l.835.845Z" fill="#40382A"/><path d="M18.218 3.333c-.145.078-.345.26-.448.398-.163.236-.181.302-.181.725 0 .416.018.494.175.718.218.314.679.555 1.06.555.678-.006 1.278-.598 1.278-1.267 0-.942-1.048-1.564-1.884-1.13Zm.878.9c.128.18.122.325-.024.47-.236.235-.605.084-.605-.247 0-.338.442-.495.63-.224ZM1.81 1.927a.512.512 0 0 0-.163.223C1.568 2.337 0 9.175 0 9.308c0 .048.054.157.127.248l.121.156h3.506v15.693h-.2c-1.162 0-2.052.688-2.21 1.714-.066.416-.036.597.121.742.115.103.309.109 2.586.127 1.35.012 2.549 0 2.658-.018.308-.054.436-.223.436-.573 0-.568-.34-1.22-.818-1.564-.351-.253-.69-.362-1.223-.41l-.442-.036.03-15.644h1.15l.019 2.667.012 2.668.157.12c.091.073.2.127.243.127a.57.57 0 0 0 .442-.283c.042-.097.066-.966.066-2.734V9.712h.69c.782 0 .963-.072.963-.398 0-.096-.357-1.75-.799-3.676-.714-3.126-.817-3.512-.95-3.639l-.152-.133H4.22c-1.338 0-2.355.03-2.41.06Zm4.245.88c0 .019.302 1.34.666 2.934.369 1.6.666 2.94.666 2.988 0 .066-.557.078-3.185.078-3.003 0-3.179-.006-3.148-.109.018-.054.302-1.31.641-2.788.34-1.479.636-2.788.672-2.915l.06-.223h1.811c1 0 1.817.018 1.817.036ZM5.57 26.426c.188.102.479.362.551.5.055.103-.054.11-1.883.11H2.295l.09-.17c.11-.21.4-.422.685-.495.357-.084 2.319-.042 2.5.055Z" fill="#40382A"/><path d="M11.461 14.51a2.857 2.857 0 0 0-2.07 2.228c-.037.199-.067.754-.067 1.243v.881l-.393.17a2.172 2.172 0 0 0-1.139 1.11l-.193.404-.037 7.08.152.175.145.169h14.374l.145-.17c.182-.21.182-.355 0-.567l-.145-.169-5.123-.018-5.122-.012v-3.38H26.58v3.38h-1.332c-1.477 0-1.72.043-1.792.326-.067.266.024.459.248.556.17.072.781.084 3.506.084 2.137 0 3.354-.024 3.463-.06.333-.127.32 0 .327-3.724 0-3.211-.006-3.47-.115-3.815-.206-.658-.696-1.17-1.375-1.43l-.266-.103-.006-.971c0-1.123-.09-1.57-.418-2.113-.248-.41-.696-.833-1.102-1.038-.66-.332-.52-.326-6.593-.326-3.088 0-5.661.018-5.716.036-.157.06-.272.38-.206.562.128.32-.145.301 5.873.307 6.23 0 5.94-.018 6.503.41.218.164.363.345.515.64l.212.417.018 1.038.024 1.038-.363.133c-.473.17-.902.555-1.169 1.044l-.206.38-.018 1.165-.024 1.16-14.55-.031-.03-1.147c-.03-1.056-.042-1.17-.181-1.448-.23-.471-.751-.954-1.205-1.117l-.382-.139.024-1.038.019-1.038.212-.416c.151-.296.296-.477.508-.634.473-.356.751-.417 1.913-.417.933 0 1.024-.012 1.175-.126a.419.419 0 0 0 .018-.646c-.133-.127-.194-.133-1.229-.127-.732 0-1.187.03-1.399.085Zm-1.029 5.414c.14.079.333.26.436.399l.182.265.036 6.446h-2.61v-3.066c0-1.985.025-3.144.067-3.295.036-.127.176-.35.309-.495a1.268 1.268 0 0 1 1.58-.254Zm18.733-.102c.37.108.763.5.86.85.043.152.067 1.31.067 3.296v3.066h-2.604v-3.15c0-3.078 0-3.157.127-3.41.14-.296.424-.537.763-.658.297-.103.418-.103.787.006Z" fill="#40382A"/></svg>