<svg width="31" height="31" fill="none" xmlns="http://www.w3.org/2000/svg"><path d="M28.493 14.011c-4.815 1.868-6.373 1.748-9.904.324v-.484a1.034 1.034 0 0 0-.637-.954l-4.131-1.712a1.023 1.023 0 0 0-1.377.644C6.322 9.633 2.573 10.46 1.22 10.937a1.825 1.825 0 0 0-1.113 2.336 1.804 1.804 0 0 0 1.755 1.215l2.58 8.067a6.173 6.173 0 0 0 3.82 3.937v1.503A1.546 1.546 0 0 0 8.778 31h2.065a1.549 1.549 0 0 0 .304-3.07l.532-1.063h8.656l.532 1.064A1.549 1.549 0 0 0 21.171 31h2.066a1.545 1.545 0 0 0 .516-3.005v-1.463a6.174 6.174 0 0 0 3.885-3.82l1.8-5.145c.126-.047.246-.09.375-.14a1.83 1.83 0 1 0-1.32-3.413v-.002Zm-15.068 6.14h4.131v1.033a.517.517 0 0 1-.516.516h-3.098a.516.516 0 0 1-.517-.516V20.15Zm4.131-6.3v5.266h-4.13v-6.975l4.13 1.71Zm-16.476-.92a.796.796 0 0 1 .485-1.02c1.27-.447 4.842-1.222 10.827.997v1.705c-5.977-2.351-9.388-1.514-10.299-1.196h-.01c-.007 0-.014 0-.02.003a.788.788 0 0 1-.982-.49Zm10.28 16.52a.517.517 0 0 1-.517.516H8.778a.516.516 0 1 1 0-1.034h2.065a.516.516 0 0 1 .517.517Zm11.877.516H21.17a.516.516 0 1 1 0-1.034h2.066a.516.516 0 1 1 0 1.034Zm3.427-7.595a5.157 5.157 0 0 1-2.911 3.068v-.123a.517.517 0 1 0-1.033 0V27.9h-.713l-1.404-2.814a.517.517 0 0 0-.924.462l.143.286h-7.627l.143-.286a.517.517 0 0 0-.924-.462L10.008 27.9h-.714v-2.583a.517.517 0 1 0-1.033 0v.074a5.146 5.146 0 0 1-2.84-3.152l-2.548-7.975c2.936-.727 6.717.33 9.52 1.459v5.46a1.55 1.55 0 0 0 1.549 1.55h3.098a1.549 1.549 0 0 0 1.55-1.55v-2.928c1.359.519 2.8.793 4.254.81a16.708 16.708 0 0 0 5.342-1.051l-1.522 4.358Zm2.778-5.911c-2.797 1.087-4.832 1.571-6.598 1.571a11.872 11.872 0 0 1-4.255-.878v-1.705c3.54 1.375 5.44 1.404 10.276-.473a.796.796 0 1 1 .576 1.486l.001-.001Z" fill="#40382A"/><path d="M5.551 15.862a.517.517 0 1 0-.98.315l1.837 5.751a.516.516 0 0 0 .948.082.517.517 0 0 0 .033-.394l-1.838-5.754Zm14.587-6.561a1.549 1.549 0 1 0 0 3.097 1.549 1.549 0 0 0 0-3.097Zm0 2.066a.516.516 0 1 1 0-1.032.516.516 0 0 1 0 1.032Zm5.164-8.008a2.326 2.326 0 0 0-3.213-2.148 2.323 2.323 0 0 0-.754 3.792 2.323 2.323 0 0 0 3.967-1.644Zm-3.615 0a1.292 1.292 0 1 1 2.584 0 1.292 1.292 0 0 1-2.584 0Zm2.324 6.975a1.806 1.806 0 0 0 1.807-1.808 1.81 1.81 0 0 0-1.807-1.809 1.807 1.807 0 0 0 0 3.617Zm0-2.583a.774.774 0 1 1 0 1.549.774.774 0 0 1 0-1.55ZM7.842 6.403a2.221 2.221 0 0 0 .936-1.758 2.209 2.209 0 0 0-.949-1.757c-.384-.341-.6-.555-.6-.992 0-.438.216-.652.6-.991A.517.517 0 0 0 7.144.13a2.238 2.238 0 0 0-.948 1.766 2.242 2.242 0 0 0 .948 1.764c.394.35.601.552.601.985 0 .433-.204.64-.6.997a2.239 2.239 0 0 0-.95 1.764c.021.705.373 1.359.95 1.765a.517.517 0 1 0 .684-.775c-.384-.338-.6-.552-.6-.99 0-.438.216-.65.613-1.003Zm3.098 0a2.221 2.221 0 0 0 .936-1.758 2.21 2.21 0 0 0-.948-1.757c-.384-.341-.601-.555-.601-.992 0-.438.217-.652.6-.991a.518.518 0 0 0-.684-.775 2.239 2.239 0 0 0-.949 1.766 2.242 2.242 0 0 0 .949 1.764c.394.35.6.552.6.985 0 .433-.204.64-.6.997a2.239 2.239 0 0 0-.949 1.764c.02.705.372 1.359.949 1.765a.517.517 0 1 0 .684-.775c-.383-.338-.6-.552-.6-.99 0-.438.217-.65.613-1.003Zm3.099 0a2.221 2.221 0 0 0 .935-1.758 2.21 2.21 0 0 0-.948-1.757c-.384-.341-.6-.555-.6-.992 0-.438.216-.652.6-.991A.518.518 0 0 0 13.34.13a2.239 2.239 0 0 0-.949 1.766 2.243 2.243 0 0 0 .949 1.764c.394.35.6.552.6.985 0 .433-.203.64-.6.997a2.239 2.239 0 0 0-.949 1.764c.021.705.372 1.359.949 1.765a.517.517 0 1 0 .685-.775c-.384-.338-.6-.552-.6-.99 0-.438.216-.65.613-1.003Z" fill="#40382A"/></svg>