<svg width="178" height="47" viewBox="0 0 178 47" fill="none" xmlns="http://www.w3.org/2000/svg">
<path d="M178 0.000499908H45V47.0005H178L153.84 23.2531L178 0.000499908Z" fill="#04CA00"/>
<path d="M-0.000244141 47.0005L133 47.0005V0.000499908L-0.000240032 0.000488281L24.1598 23.7479L-0.000244141 47.0005Z" fill="#04CA00"/>
<g clip-path="url(#clip0_849_2093)">
<path d="M55.3979 5.54434C54.8768 5.83184 52.5858 8.49121 50.699 11.0068C47.1682 15.7236 44.8951 20.0182 44.1225 23.4682C43.835 24.7619 43.835 27.0889 44.1315 28.4725C44.5268 30.3322 45.2096 31.635 46.3686 32.7221C47.9139 34.1686 49.9354 34.8783 53.2147 35.1299C53.8795 35.1748 54.4815 35.2197 54.5443 35.2197C54.6252 35.2197 54.6522 35.7139 54.6522 37.376C54.6522 39.3705 54.6701 39.5682 54.8318 39.8916C55.0385 40.2959 55.5506 40.6104 55.9998 40.6104C56.449 40.6104 56.9611 40.2959 57.1678 39.8916C57.3295 39.5682 57.3475 39.3705 57.3475 37.385V35.2377L58.1381 35.1838C62.0373 34.9143 64.0139 34.2584 65.649 32.7131C66.799 31.617 67.4729 30.3232 67.8682 28.4725C68.1557 27.1248 68.1557 24.7799 67.8772 23.4771C66.9158 19.0658 63.0885 12.6779 57.8955 6.8291C56.8443 5.64317 56.5119 5.3916 55.9998 5.3916C55.8291 5.3916 55.5506 5.46348 55.3979 5.54434ZM57.1049 10.0635C60.0787 13.6572 62.6842 17.5924 64.0229 20.5123C65.092 22.8482 65.5053 24.6092 65.3975 26.4061C65.1729 30.4939 63.4748 32.0303 58.7401 32.4346C58.1471 32.4795 57.5901 32.5244 57.5092 32.5244C57.3565 32.5244 57.3475 32.3807 57.3475 30.7455V28.9756L59.8721 26.46C61.2557 25.0764 62.4686 23.7916 62.5674 23.6119C62.783 23.1807 62.783 22.8123 62.5584 22.3721C62.244 21.7521 61.4443 21.4916 60.8244 21.7971C60.6627 21.8779 59.8182 22.6506 58.9467 23.5221L57.3475 25.1123V23.001V20.8896L58.5244 19.7217C60.0787 18.1764 60.2674 17.7811 59.8631 16.9814C59.6565 16.5771 59.1443 16.2627 58.6951 16.2627C58.2459 16.2627 57.8955 16.4963 56.9252 17.4576L55.9998 18.374L55.0834 17.4576C54.1041 16.4963 53.7537 16.2627 53.3045 16.2627C52.8553 16.2627 52.3432 16.5771 52.1365 16.9814C51.7322 17.7811 51.9209 18.1764 53.4752 19.7217L54.6522 20.8896V23.001V25.1123L53.0619 23.5221C52.1815 22.6506 51.3369 21.8779 51.1752 21.7971C50.5553 21.4916 49.7557 21.7521 49.4412 22.3721C49.2166 22.8123 49.2166 23.1807 49.4322 23.6119C49.5311 23.7916 50.744 25.0764 52.1276 26.46L54.6522 28.9756V30.7545V32.5424L53.8705 32.4795C49.9893 32.192 48.1744 31.3744 47.285 29.5146C46.6651 28.2209 46.4135 25.9658 46.692 24.3486C47.3209 20.7549 50.2588 15.6697 55.0385 9.90176C55.5326 9.2998 55.9729 8.80566 56.0088 8.80566C56.0358 8.80566 56.5389 9.37168 57.1049 10.0635Z" fill="white"/>
<path d="M38.1029 8.81465C37.8423 8.94941 37.5728 9.28184 36.9619 10.2072C34.9044 13.2979 33.7005 16.4963 33.1615 20.2607C32.9818 21.5006 33.0177 24.8697 33.2154 26.1904C33.422 27.5471 33.9611 29.7033 34.3923 30.8713C35.156 32.9467 36.5037 35.3635 37.9232 37.1873C38.6509 38.1307 40.7083 40.2061 41.6247 40.9338C43.4845 42.3982 46.0091 43.8268 48.1294 44.6084C49.2974 45.0396 51.4537 45.5787 52.8103 45.7854C54.131 45.983 57.572 46.0189 58.8298 45.8393C62.0372 45.3811 65.029 44.3658 67.5806 42.8654C67.8322 42.7127 68.0658 42.5869 68.0837 42.5869C68.1107 42.5869 68.1287 43.117 68.1287 43.7549C68.1287 44.7521 68.1556 44.9857 68.3083 45.2822C68.515 45.6865 69.0271 46.001 69.4763 46.001C69.9255 46.001 70.4376 45.6865 70.6443 45.2732C70.824 44.9318 70.833 44.7881 70.806 42.1826C70.779 39.5861 70.7701 39.4424 70.5904 39.2088C70.258 38.7596 69.9615 38.5979 69.4763 38.5979C69.1169 38.5979 68.9552 38.6518 68.6497 38.8854C66.6283 40.4037 64.454 41.5717 62.4146 42.2545C55.874 44.4287 48.7224 43.1439 43.3048 38.8225C39.0732 35.4443 36.279 30.2693 35.7849 24.8428C35.3716 20.3057 36.5845 15.6068 39.172 11.7256C39.5673 11.1326 39.9357 10.5576 39.9986 10.4498C40.2591 9.94668 39.9447 9.09317 39.3787 8.79668C38.9833 8.58105 38.5251 8.59004 38.1029 8.81465Z" fill="white"/>
</g>
<path d="M81.2888 8.23498C82.0074 8.23498 82.6564 8.40364 83.2358 8.74098C83.8224 9.07831 84.2808 9.54764 84.6108 10.149C84.9481 10.743 85.1168 11.4103 85.1168 12.151C85.1168 12.8916 84.9481 13.5626 84.6108 14.164C84.2808 14.758 83.8224 15.2236 83.2358 15.561C82.6564 15.8983 82.0074 16.067 81.2888 16.067C80.6874 16.067 80.1374 15.9716 79.6388 15.781C79.1401 15.5903 78.7221 15.308 78.3848 14.934L78.8908 14.417C79.4994 15.033 80.2878 15.341 81.2558 15.341C81.7984 15.341 82.2934 15.2163 82.7408 14.967C83.1881 14.7103 83.5474 14.362 83.8188 13.922C84.0974 13.4746 84.2551 12.9723 84.2918 12.415H80.3208V11.744H84.2808C84.2221 11.2086 84.0534 10.732 83.7748 10.314C83.5034 9.88864 83.1478 9.55864 82.7078 9.32398C82.2678 9.08198 81.7838 8.96098 81.2558 8.96098C80.2878 8.96098 79.4994 9.26898 78.8908 9.88498L78.3848 9.36798C78.7221 8.99398 79.1401 8.71164 79.6388 8.52098C80.1374 8.33031 80.6874 8.23498 81.2888 8.23498ZM88.9784 13.427H87.6584V16.001H86.8774V10.215H87.6584V12.756H88.9894L91.0244 10.215H91.8714L89.5944 13.02L92.0364 16.001H91.1124L88.9784 13.427ZM95.4519 16.056C94.8945 16.056 94.3922 15.9313 93.9449 15.682C93.4975 15.4253 93.1455 15.0733 92.8889 14.626C92.6322 14.1786 92.5039 13.6726 92.5039 13.108C92.5039 12.5433 92.6322 12.0373 92.8889 11.59C93.1455 11.1426 93.4975 10.7943 93.9449 10.545C94.3922 10.2956 94.8945 10.171 95.4519 10.171C96.0092 10.171 96.5115 10.2956 96.9589 10.545C97.4062 10.7943 97.7545 11.1426 98.0039 11.59C98.2605 12.0373 98.3889 12.5433 98.3889 13.108C98.3889 13.6726 98.2605 14.1786 98.0039 14.626C97.7545 15.0733 97.4062 15.4253 96.9589 15.682C96.5115 15.9313 96.0092 16.056 95.4519 16.056ZM95.4519 15.363C95.8625 15.363 96.2292 15.2713 96.5519 15.088C96.8819 14.8973 97.1385 14.6296 97.3219 14.285C97.5052 13.9403 97.5969 13.548 97.5969 13.108C97.5969 12.668 97.5052 12.2756 97.3219 11.931C97.1385 11.5863 96.8819 11.3223 96.5519 11.139C96.2292 10.9483 95.8625 10.853 95.4519 10.853C95.0412 10.853 94.6709 10.9483 94.3409 11.139C94.0182 11.3223 93.7615 11.5863 93.5709 11.931C93.3875 12.2756 93.2959 12.668 93.2959 13.108C93.2959 13.548 93.3875 13.9403 93.5709 14.285C93.7615 14.6296 94.0182 14.8973 94.3409 15.088C94.6709 15.2713 95.0412 15.363 95.4519 15.363ZM104.756 10.215V16.001H103.975V10.908H101.203L101.126 12.338C101.067 13.5406 100.928 14.4646 100.708 15.11C100.488 15.7553 100.095 16.078 99.5308 16.078C99.3768 16.078 99.1898 16.0486 98.9698 15.99L99.0248 15.319C99.1568 15.3483 99.2485 15.363 99.2998 15.363C99.6005 15.363 99.8278 15.2236 99.9818 14.945C100.136 14.6663 100.238 14.3216 100.29 13.911C100.341 13.5003 100.385 12.9576 100.422 12.283L100.521 10.215H104.756ZM109.363 16.056C108.806 16.056 108.303 15.9313 107.856 15.682C107.409 15.4253 107.057 15.0733 106.8 14.626C106.543 14.1786 106.415 13.6726 106.415 13.108C106.415 12.5433 106.543 12.0373 106.8 11.59C107.057 11.1426 107.409 10.7943 107.856 10.545C108.303 10.2956 108.806 10.171 109.363 10.171C109.92 10.171 110.423 10.2956 110.87 10.545C111.317 10.7943 111.666 11.1426 111.915 11.59C112.172 12.0373 112.3 12.5433 112.3 13.108C112.3 13.6726 112.172 14.1786 111.915 14.626C111.666 15.0733 111.317 15.4253 110.87 15.682C110.423 15.9313 109.92 16.056 109.363 16.056ZM109.363 15.363C109.774 15.363 110.14 15.2713 110.463 15.088C110.793 14.8973 111.05 14.6296 111.233 14.285C111.416 13.9403 111.508 13.548 111.508 13.108C111.508 12.668 111.416 12.2756 111.233 11.931C111.05 11.5863 110.793 11.3223 110.463 11.139C110.14 10.9483 109.774 10.853 109.363 10.853C108.952 10.853 108.582 10.9483 108.252 11.139C107.929 11.3223 107.673 11.5863 107.482 11.931C107.299 12.2756 107.207 12.668 107.207 13.108C107.207 13.548 107.299 13.9403 107.482 14.285C107.673 14.6296 107.929 14.8973 108.252 15.088C108.582 15.2713 108.952 15.363 109.363 15.363ZM118.061 10.908H114.75V16.001H113.969V10.215H118.061V10.908ZM119.19 10.215H119.971V14.813L123.832 10.215H124.525V16.001H123.744V11.403L119.894 16.001H119.19V10.215ZM131.13 10.215V16.001H130.349V13.592C129.682 13.8853 129.025 14.032 128.38 14.032C127.683 14.032 127.141 13.8743 126.752 13.559C126.363 13.2363 126.169 12.756 126.169 12.118V10.215H126.95V12.074C126.95 12.5066 127.089 12.8366 127.368 13.064C127.647 13.284 128.032 13.394 128.523 13.394C129.066 13.394 129.674 13.251 130.349 12.965V10.215H131.13ZM133.348 10.215H134.129V12.778H137.77V10.215H138.551V16.001H137.77V13.449H134.129V16.001H133.348V10.215ZM143.158 16.056C142.601 16.056 142.098 15.9313 141.651 15.682C141.204 15.4253 140.852 15.0733 140.595 14.626C140.338 14.1786 140.21 13.6726 140.21 13.108C140.21 12.5433 140.338 12.0373 140.595 11.59C140.852 11.1426 141.204 10.7943 141.651 10.545C142.098 10.2956 142.601 10.171 143.158 10.171C143.715 10.171 144.218 10.2956 144.665 10.545C145.112 10.7943 145.461 11.1426 145.71 11.59C145.967 12.0373 146.095 12.5433 146.095 13.108C146.095 13.6726 145.967 14.1786 145.71 14.626C145.461 15.0733 145.112 15.4253 144.665 15.682C144.218 15.9313 143.715 16.056 143.158 16.056ZM143.158 15.363C143.569 15.363 143.935 15.2713 144.258 15.088C144.588 14.8973 144.845 14.6296 145.028 14.285C145.211 13.9403 145.303 13.548 145.303 13.108C145.303 12.668 145.211 12.2756 145.028 11.931C144.845 11.5863 144.588 11.3223 144.258 11.139C143.935 10.9483 143.569 10.853 143.158 10.853C142.747 10.853 142.377 10.9483 142.047 11.139C141.724 11.3223 141.468 11.5863 141.277 11.931C141.094 12.2756 141.002 12.668 141.002 13.108C141.002 13.548 141.094 13.9403 141.277 14.285C141.468 14.6296 141.724 14.8973 142.047 15.088C142.377 15.2713 142.747 15.363 143.158 15.363Z" fill="white"/>
<path d="M87.3858 20.801V39.001H81.2498V25.429H78.1298V20.801H87.3858ZM97.8629 39.417C96.2509 39.417 94.8209 39.0443 93.5729 38.299C92.3423 37.5363 91.3716 36.4443 90.6609 35.023C89.9676 33.5843 89.6209 31.877 89.6209 29.901C89.6209 27.925 89.9676 26.2263 90.6609 24.805C91.3716 23.3663 92.3423 22.2743 93.5729 21.529C94.8209 20.7663 96.2509 20.385 97.8629 20.385C99.4749 20.385 100.896 20.7663 102.127 21.529C103.375 22.2743 104.346 23.3663 105.039 24.805C105.75 26.2263 106.105 27.925 106.105 29.901C106.105 31.877 105.75 33.5843 105.039 35.023C104.346 36.4443 103.375 37.5363 102.127 38.299C100.896 39.0443 99.4749 39.417 97.8629 39.417ZM97.8629 34.503C99.2496 34.503 99.9429 32.969 99.9429 29.901C99.9429 26.833 99.2496 25.299 97.8629 25.299C96.4763 25.299 95.7829 26.833 95.7829 29.901C95.7829 32.969 96.4763 34.503 97.8629 34.503ZM115.865 39.417C114.253 39.417 112.823 39.0443 111.575 38.299C110.344 37.5363 109.374 36.4443 108.663 35.023C107.97 33.5843 107.623 31.877 107.623 29.901C107.623 27.925 107.97 26.2263 108.663 24.805C109.374 23.3663 110.344 22.2743 111.575 21.529C112.823 20.7663 114.253 20.385 115.865 20.385C117.477 20.385 118.898 20.7663 120.129 21.529C121.377 22.2743 122.348 23.3663 123.041 24.805C123.752 26.2263 124.107 27.925 124.107 29.901C124.107 31.877 123.752 33.5843 123.041 35.023C122.348 36.4443 121.377 37.5363 120.129 38.299C118.898 39.0443 117.477 39.417 115.865 39.417ZM115.865 34.503C117.252 34.503 117.945 32.969 117.945 29.901C117.945 26.833 117.252 25.299 115.865 25.299C114.478 25.299 113.785 26.833 113.785 29.901C113.785 32.969 114.478 34.503 115.865 34.503ZM130.123 30.681C128.702 30.681 127.54 30.2303 126.639 29.329C125.738 28.4276 125.287 27.1883 125.287 25.611C125.287 24.5536 125.495 23.6436 125.911 22.881C126.327 22.1183 126.899 21.5376 127.627 21.139C128.372 20.7403 129.204 20.541 130.123 20.541C131.042 20.541 131.865 20.7403 132.593 21.139C133.338 21.5376 133.919 22.1183 134.335 22.881C134.751 23.6436 134.959 24.5536 134.959 25.611C134.959 27.1883 134.508 28.4276 133.607 29.329C132.706 30.2303 131.544 30.681 130.123 30.681ZM140.809 20.801H145.203L132.775 39.001H128.381L140.809 20.801ZM130.123 27.873C130.452 27.873 130.721 27.6996 130.929 27.353C131.154 26.989 131.267 26.4083 131.267 25.611C131.267 24.8136 131.154 24.2416 130.929 23.895C130.721 23.531 130.452 23.349 130.123 23.349C129.794 23.349 129.516 23.531 129.291 23.895C129.083 24.2416 128.979 24.8136 128.979 25.611C128.979 26.4083 129.083 26.989 129.291 27.353C129.516 27.6996 129.794 27.873 130.123 27.873ZM143.461 39.261C142.04 39.261 140.878 38.8103 139.977 37.909C139.076 37.0076 138.625 35.7683 138.625 34.191C138.625 33.1336 138.833 32.2236 139.249 31.461C139.665 30.6983 140.237 30.1176 140.965 29.719C141.71 29.3203 142.542 29.121 143.461 29.121C144.38 29.121 145.203 29.3203 145.931 29.719C146.676 30.1176 147.257 30.6983 147.673 31.461C148.089 32.2236 148.297 33.1336 148.297 34.191C148.297 35.7683 147.846 37.0076 146.945 37.909C146.044 38.8103 144.882 39.261 143.461 39.261ZM143.461 36.453C143.79 36.453 144.059 36.2796 144.267 35.933C144.492 35.569 144.605 34.9883 144.605 34.191C144.605 33.3936 144.492 32.8216 144.267 32.475C144.059 32.111 143.79 31.929 143.461 31.929C143.132 31.929 142.854 32.111 142.629 32.475C142.421 32.8216 142.317 33.3936 142.317 34.191C142.317 34.9883 142.421 35.569 142.629 35.933C142.854 36.2796 143.132 36.453 143.461 36.453Z" fill="white"/>
<defs>
<clipPath id="clip0_849_2093">
<rect width="46" height="46" fill="white" transform="translate(32.9995)"/>
</clipPath>
</defs>
</svg>
