<svg width="185" height="47" viewBox="0 0 185 47" fill="none" xmlns="http://www.w3.org/2000/svg">
<path d="M185 0.000332682H34.0002V47.0003H185L160.84 23.253L185 0.000332682Z" fill="#F52942"/>
<path d="M-0.000244141 46.9995L151 46.9995V-0.00047508L-0.000240032 -0.000488281L24.1598 23.7469L-0.000244141 46.9995Z" fill="#F52942"/>
<path d="M78 19.7153C82.0833 19.7153 85.0972 20.5556 87.0417 22.2363C89.0139 23.9169 90 26.1578 90 28.959C90 30.7797 89.5278 32.4604 88.5833 34.001C87.6667 35.5136 86.25 36.7321 84.3333 37.6564C82.4444 38.5528 80.0972 39.001 77.2917 39.001C75.2361 39.001 73.1944 38.7489 71.1667 38.2447C69.1667 37.7405 67.4444 37.0262 66 36.1018L68.9583 29.8413C70.125 30.6256 71.4028 31.2279 72.7917 31.648C74.2083 32.0682 75.625 32.2783 77.0417 32.2783C78.4583 32.2783 79.5833 32.0122 80.4167 31.48C81.2778 30.9197 81.7083 30.1494 81.7083 29.169C81.7083 28.1887 81.2917 27.4464 80.4583 26.9422C79.625 26.438 78.1528 26.1859 76.0417 26.1859H68.125L69.5833 9.00098H88.1667V15.4295H76.4167L76.0417 19.7153H78Z" fill="white"/>
<path d="M109.56 9.00098V23.001H105.66V12.141H101.64L101.56 14.421C101.493 16.421 101.327 18.0476 101.06 19.301C100.807 20.5543 100.367 21.5276 99.74 22.221C99.1133 22.901 98.2267 23.241 97.08 23.241C96.5467 23.241 95.9467 23.161 95.28 23.001L95.5 19.761C95.6733 19.801 95.8533 19.821 96.04 19.821C96.56 19.821 96.96 19.6143 97.24 19.201C97.52 18.7876 97.72 18.2143 97.84 17.481C97.96 16.7343 98.04 15.7676 98.08 14.581L98.28 9.00098H109.56ZM123.795 19.941V23.001H112.555V9.00098H123.535V12.061H116.475V14.421H122.695V17.381H116.475V19.941H123.795ZM137.331 12.141H133.051V23.001H129.151V12.141H124.851V9.00098H137.331V12.141Z" fill="white"/>
<path d="M101.149 30.982H97.236V37.001H96.313V30.163H101.149V30.982ZM104.836 30.111C105.729 30.111 106.413 30.3363 106.89 30.787C107.367 31.229 107.605 31.8876 107.605 32.763V37.001H106.721V35.935C106.513 36.2903 106.205 36.5676 105.798 36.767C105.399 36.9663 104.923 37.066 104.368 37.066C103.605 37.066 102.999 36.884 102.548 36.52C102.097 36.156 101.872 35.675 101.872 35.077C101.872 34.4963 102.08 34.0283 102.496 33.673C102.921 33.3176 103.592 33.14 104.511 33.14H106.682V32.724C106.682 32.1346 106.517 31.6883 106.188 31.385C105.859 31.073 105.378 30.917 104.745 30.917C104.312 30.917 103.896 30.9906 103.497 31.138C103.098 31.2766 102.756 31.4716 102.47 31.723L102.054 31.034C102.401 30.7393 102.817 30.514 103.302 30.358C103.787 30.1933 104.299 30.111 104.836 30.111ZM104.511 36.338C105.031 36.338 105.477 36.221 105.85 35.987C106.223 35.7443 106.5 35.3976 106.682 34.947V33.829H104.537C103.367 33.829 102.782 34.2363 102.782 35.051C102.782 35.4496 102.934 35.766 103.237 36C103.54 36.2253 103.965 36.338 104.511 36.338ZM113.585 30.111C114.226 30.111 114.807 30.2583 115.327 30.553C115.847 30.839 116.254 31.2463 116.549 31.775C116.844 32.3036 116.991 32.906 116.991 33.582C116.991 34.2666 116.844 34.8733 116.549 35.402C116.254 35.9306 115.847 36.3423 115.327 36.637C114.816 36.923 114.235 37.066 113.585 37.066C113.03 37.066 112.528 36.9533 112.077 36.728C111.635 36.494 111.271 36.156 110.985 35.714V39.523H110.062V30.163H110.946V31.515C111.223 31.0643 111.587 30.7176 112.038 30.475C112.497 30.2323 113.013 30.111 113.585 30.111ZM113.52 36.247C113.997 36.247 114.43 36.1386 114.82 35.922C115.21 35.6966 115.513 35.3803 115.73 34.973C115.955 34.5656 116.068 34.102 116.068 33.582C116.068 33.062 115.955 32.6026 115.73 32.204C115.513 31.7966 115.21 31.4803 114.82 31.255C114.43 31.0296 113.997 30.917 113.52 30.917C113.035 30.917 112.597 31.0296 112.207 31.255C111.826 31.4803 111.522 31.7966 111.297 32.204C111.08 32.6026 110.972 33.062 110.972 33.582C110.972 34.102 111.08 34.5656 111.297 34.973C111.522 35.3803 111.826 35.6966 112.207 35.922C112.597 36.1386 113.035 36.247 113.52 36.247ZM121.289 30.111C122.182 30.111 122.866 30.3363 123.343 30.787C123.82 31.229 124.058 31.8876 124.058 32.763V37.001H123.174V35.935C122.966 36.2903 122.658 36.5676 122.251 36.767C121.852 36.9663 121.376 37.066 120.821 37.066C120.058 37.066 119.452 36.884 119.001 36.52C118.55 36.156 118.325 35.675 118.325 35.077C118.325 34.4963 118.533 34.0283 118.949 33.673C119.374 33.3176 120.045 33.14 120.964 33.14H123.135V32.724C123.135 32.1346 122.97 31.6883 122.641 31.385C122.312 31.073 121.831 30.917 121.198 30.917C120.765 30.917 120.349 30.9906 119.95 31.138C119.551 31.2766 119.209 31.4716 118.923 31.723L118.507 31.034C118.854 30.7393 119.27 30.514 119.755 30.358C120.24 30.1933 120.752 30.111 121.289 30.111ZM120.964 36.338C121.484 36.338 121.93 36.221 122.303 35.987C122.676 35.7443 122.953 35.3976 123.135 34.947V33.829H120.99C119.82 33.829 119.235 34.2363 119.235 35.051C119.235 35.4496 119.387 35.766 119.69 36C119.993 36.2253 120.418 36.338 120.964 36.338ZM126.515 30.163H127.438V33.192H131.741V30.163H132.664V37.001H131.741V33.985H127.438V37.001H126.515V30.163ZM140.098 30.982H137.511V37.001H136.588V30.982H134.001V30.163H140.098V30.982ZM141.432 30.163H142.355V35.597L146.918 30.163H147.737V37.001H146.814V31.567L142.264 37.001H141.432V30.163ZM150.382 30.163H151.305V35.597L155.868 30.163H156.687V37.001H155.764V31.567L151.214 37.001H150.382V30.163Z" fill="white"/>
<g clip-path="url(#clip0_849_2083)">
<path d="M44.4586 6.15566C44.2969 6.24707 43.868 6.57753 43.5094 6.90097C40.4438 9.64316 36.8859 11.0002 32.2453 11.1971C30.7195 11.2603 30.5016 11.3236 30.1641 11.8158C29.9883 12.0689 29.9883 12.1041 29.932 14.0799C29.8477 16.9275 29.9109 21.5189 30.0516 22.9463C30.4453 26.9471 31.2891 30.0338 32.7024 32.5932C34.6781 36.1791 37.7438 38.9283 41.8781 40.8268C43.1438 41.4104 44.7117 42.001 45 42.001C45.1195 42.001 45.6469 41.8393 46.1742 41.6424C49.5774 40.3697 52.3617 38.6119 54.4922 36.4041C57.7055 33.0643 59.3578 28.9932 59.9484 22.9463C60.0891 21.5189 60.1524 16.9275 60.068 14.0799C60.0117 12.1041 60.0117 12.0689 59.8359 11.8158C59.4984 11.3236 59.2805 11.2603 57.7547 11.1971C53.0578 11.0002 49.3875 9.57285 46.3078 6.75331C45.45 5.97285 45.0422 5.83925 44.4586 6.15566ZM45.675 9.53066C47.3906 10.9088 49.4649 12.0197 51.6024 12.7088C53.093 13.1939 54.457 13.4541 56.3836 13.6299C56.9813 13.6861 57.4875 13.7494 57.5086 13.7775C57.6 13.8619 57.5508 21.9057 57.4594 22.8057C57.0867 26.4127 56.4891 28.6979 55.3149 30.9971C53.4445 34.6674 50.2383 37.3674 45.6188 39.1604L45 39.3994L44.3883 39.1604C40.2117 37.5432 37.0406 35.0541 35.2125 31.9674C33.7078 29.4291 32.9625 26.8697 32.5406 22.8057C32.4492 21.9057 32.4 13.8619 32.4914 13.7775C32.5125 13.7494 33.0188 13.6861 33.6164 13.6299C35.543 13.4541 36.907 13.1939 38.3977 12.7088C40.5352 12.0197 42.5813 10.9228 44.325 9.53066C44.6695 9.24941 44.9789 9.02441 45 9.02441C45.0211 9.02441 45.3305 9.24941 45.675 9.53066Z" fill="white"/>
<path d="M49.7108 19.3676C49.6124 19.4027 48.1218 20.8512 46.3921 22.5809L43.2421 25.7168L41.7866 24.2684C40.3944 22.8902 40.3101 22.8199 39.9937 22.7707C39.0163 22.623 38.264 23.5512 38.6015 24.4723C38.6999 24.7324 42.4405 28.4871 42.7288 28.6137C43.1155 28.7824 43.5937 28.7402 43.9522 28.5082C44.4515 28.1848 51.2296 21.3434 51.3632 21.034C51.7147 20.1691 51.1382 19.2832 50.2241 19.2973C50.0413 19.2973 49.8093 19.3324 49.7108 19.3676Z" fill="white"/>
</g>
<defs>
<clipPath id="clip0_849_2083">
<rect width="30" height="36" fill="white" transform="translate(29.9995 6)"/>
</clipPath>
</defs>
</svg>
