<svg width="45" height="42" viewBox="0 0 45 42" fill="none" xmlns="http://www.w3.org/2000/svg">
<path d="M31.0179 3.15284C30.7296 2.87711 30.7065 2.82968 30.7065 2.68702C30.7065 2.54444 30.7296 2.49701 31.0179 2.22138C31.1411 2.10348 31.2808 1.96996 31.4135 1.80335C31.7233 1.41476 31.6713 0.838534 31.2975 0.516562C30.9236 0.194499 30.3695 0.248694 30.06 0.63729C30.0033 0.708392 29.9182 0.78973 29.8282 0.875821C29.4779 1.21068 28.9487 1.71662 28.9487 2.68711C28.9487 3.65759 29.4779 4.16363 29.8282 4.49839C30.1165 4.77412 30.1396 4.82155 30.1396 4.96421C30.1396 5.10688 30.1165 5.15431 29.8282 5.43004C29.7554 5.49958 29.673 5.57836 29.5913 5.66537C29.2521 6.02636 29.2586 6.60496 29.6057 6.95773C29.7767 7.13138 29.9982 7.21793 30.2198 7.21793C30.4482 7.21793 30.6763 7.12589 30.8485 6.94256C30.8974 6.89065 30.9559 6.83472 31.0179 6.7755C31.3681 6.44064 31.8974 5.93461 31.8974 4.96412C31.8974 3.99364 31.3681 3.4876 31.0179 3.15284Z" fill="white"/>
<path d="M35.2965 5.78965C35.0082 5.51392 34.9851 5.46649 34.9851 5.32383C34.9851 5.18126 35.0082 5.13382 35.2965 4.85819C35.4197 4.74038 35.5595 4.60677 35.6923 4.44007C36.002 4.05139 35.9499 3.47525 35.5761 3.15328C35.2021 2.83113 34.6482 2.88551 34.3386 3.2741C34.2819 3.3452 34.1968 3.42654 34.1068 3.51263C33.7566 3.84749 33.2273 4.35343 33.2273 5.32383C33.2273 6.29431 33.7566 6.80025 34.1068 7.13511C34.3951 7.41084 34.4182 7.45827 34.4182 7.60093C34.4182 7.74359 34.3951 7.79102 34.1068 8.06666C34.0341 8.13621 33.9517 8.21508 33.87 8.30208C33.5308 8.66317 33.5373 9.24177 33.8846 9.59445C34.0554 9.76809 34.2771 9.85464 34.4986 9.85464C34.7269 9.85464 34.9552 9.76261 35.1273 9.57928C35.1761 9.52737 35.2346 9.47134 35.2967 9.41212C35.6468 9.07736 36.176 8.57132 36.176 7.60093C36.176 6.63045 35.6468 6.12451 35.2965 5.78965Z" fill="white"/>
<path d="M7.53244 5.4301C7.24416 5.15447 7.22105 5.10703 7.22105 4.96428C7.22105 4.82162 7.24416 4.77419 7.53244 4.49846C7.88277 4.16369 8.41196 3.65766 8.41196 2.68717C8.41196 1.71669 7.8826 1.21075 7.53235 0.875887C7.44227 0.789797 7.35719 0.708458 7.3005 0.637356C6.99086 0.24876 6.43698 0.194565 6.063 0.516628C5.6892 0.8386 5.63735 1.41473 5.94699 1.80342C6.07979 1.97002 6.21954 2.10355 6.34276 2.22144C6.63104 2.49708 6.65415 2.54451 6.65415 2.68708C6.65415 2.82974 6.63104 2.87718 6.34276 3.1529C5.99251 3.48767 5.46324 3.9937 5.46324 4.96419C5.46324 5.93467 5.99251 6.44071 6.34276 6.77556C6.40472 6.83479 6.46326 6.89072 6.51203 6.94263C6.68421 7.12596 6.91229 7.2179 7.14072 7.2179C7.3622 7.2179 7.58395 7.13135 7.75481 6.95771C8.10197 6.60494 8.10848 6.02634 7.76922 5.66534C7.68766 5.57843 7.60522 5.49965 7.53244 5.4301Z" fill="white"/>
<path d="M3.25387 8.06676C2.96559 7.79103 2.94247 7.7436 2.94247 7.60094C2.94247 7.45828 2.96559 7.41085 3.25387 7.13512C3.6042 6.80035 4.13339 6.29432 4.13339 5.32383C4.13339 4.35344 3.60411 3.8475 3.25387 3.51264C3.16378 3.42655 3.07879 3.34521 3.0221 3.27411C2.71246 2.88542 2.15849 2.83132 1.7846 3.15329C1.41081 3.47526 1.35878 4.05139 1.66841 4.44008C1.80122 4.60678 1.94096 4.7403 2.06418 4.8582C2.35246 5.13383 2.37558 5.18126 2.37558 5.32383C2.37558 5.4665 2.35246 5.51393 2.06418 5.78966C1.71394 6.12442 1.18466 6.63045 1.18466 7.60094C1.18466 8.57142 1.71403 9.07746 2.06418 9.41231C2.12615 9.47154 2.18468 9.52747 2.23355 9.57938C2.40573 9.76271 2.6338 9.85465 2.86223 9.85465C3.08371 9.85465 3.30546 9.7681 3.47632 9.59446C3.82348 9.24169 3.82999 8.66309 3.49073 8.30209C3.40917 8.21509 3.32664 8.13631 3.25387 8.06676Z" fill="white"/>
<path d="M18.6804 3.29383C16.9301 3.29383 15.5062 4.77446 15.5062 6.59443C15.5062 8.41439 16.9301 9.89503 18.6804 9.89503C20.4305 9.89503 21.8545 8.41439 21.8545 6.59443C21.8545 4.77446 20.4305 3.29383 18.6804 3.29383ZM18.6804 8.0672C17.8995 8.0672 17.264 7.40653 17.264 6.59443C17.264 5.78232 17.8994 5.12166 18.6804 5.12166C19.4614 5.12166 20.0967 5.78232 20.0967 6.59443C20.0967 7.40653 19.4614 8.0672 18.6804 8.0672Z" fill="white"/>
<path d="M31.3438 19.5324C31.3324 19.474 31.3157 19.4164 31.2937 19.3615C31.2717 19.3058 31.2445 19.2528 31.2128 19.2034C31.1812 19.1532 31.1443 19.1066 31.1039 19.0645C31.0634 19.0225 31.0186 18.9841 30.9703 18.9512C30.9228 18.9183 30.8718 18.89 30.819 18.8671C30.7655 18.8443 30.7101 18.8269 30.6538 18.815C30.5404 18.7913 30.4235 18.7913 30.3111 18.815C30.2547 18.8269 30.1994 18.8443 30.1459 18.8671C30.093 18.89 30.0421 18.9183 29.9946 18.9512C29.9463 18.9841 29.9014 19.0225 29.861 19.0645C29.8206 19.1066 29.7837 19.1532 29.752 19.2034C29.7204 19.2528 29.6931 19.3058 29.6712 19.3615C29.6492 19.4164 29.6316 19.474 29.6211 19.5324C29.6096 19.591 29.6035 19.6513 29.6035 19.7107C29.6035 19.7701 29.6096 19.8304 29.6211 19.8898C29.6316 19.9474 29.6492 20.0049 29.6712 20.0607C29.6931 20.1155 29.7204 20.1685 29.752 20.2179C29.7837 20.2681 29.8206 20.3148 29.861 20.3568C29.9014 20.3988 29.9463 20.4372 29.9946 20.471C30.0421 20.5039 30.093 20.5313 30.1459 20.5542C30.1995 20.577 30.2547 20.5953 30.3111 20.6063C30.3672 20.6182 30.4253 20.6246 30.4824 20.6246C30.5396 20.6246 30.5976 20.6182 30.6538 20.6063C30.7101 20.5953 30.7655 20.577 30.819 20.5542C30.8718 20.5313 30.9228 20.5039 30.9703 20.471C31.0186 20.4372 31.0634 20.3988 31.1039 20.3568C31.1443 20.3148 31.1812 20.2681 31.2128 20.2179C31.2445 20.1685 31.2717 20.1155 31.2937 20.0607C31.3157 20.0049 31.3324 19.9474 31.3438 19.8898C31.3552 19.8304 31.3613 19.7701 31.3613 19.7107C31.3613 19.6513 31.3552 19.5909 31.3438 19.5324Z" fill="white"/>
<path d="M7.73974 19.5325C7.7284 19.474 7.71171 19.4164 7.68973 19.3616C7.66776 19.3058 7.64043 19.2528 7.60879 19.2034C7.57723 19.1532 7.54032 19.1066 7.49989 19.0645C7.45946 19.0225 7.41455 18.9841 7.36621 18.9512C7.31875 18.9183 7.26698 18.89 7.21425 18.8671C7.16151 18.8443 7.10614 18.8269 7.04989 18.815C6.76425 18.7547 6.46094 18.8525 6.25703 19.0645C6.21572 19.1066 6.17969 19.1532 6.14717 19.2034C6.11562 19.2528 6.08828 19.3058 6.06631 19.3616C6.04434 19.4164 6.02773 19.474 6.0163 19.5325C6.00488 19.591 5.9996 19.6513 5.9996 19.7107C5.9996 19.7701 6.00479 19.8304 6.0163 19.8898C6.02773 19.9474 6.04434 20.0049 6.06631 20.0607C6.08828 20.1155 6.11562 20.1685 6.14717 20.2179C6.17969 20.2682 6.2166 20.3148 6.25703 20.3568C6.41963 20.5268 6.64639 20.6246 6.87842 20.6246C6.93555 20.6246 6.99267 20.6191 7.0498 20.6072C7.10605 20.5953 7.16134 20.578 7.21416 20.5551C7.2668 20.5323 7.31866 20.5039 7.36612 20.471C7.41446 20.4372 7.45937 20.3988 7.4998 20.3568C7.66328 20.1868 7.75732 19.951 7.75732 19.7107C7.75732 19.6513 7.75117 19.5909 7.73974 19.5325Z" fill="white"/>
<path d="M43.7328 17.9016C42.8031 16.8314 41.4744 16.2177 40.0874 16.2177C39.6021 16.2177 39.2085 16.6268 39.2085 17.1316V32.9528H32.5687L37.3322 13.9343C37.4009 13.6604 37.3436 13.3689 37.1771 13.145C37.0106 12.9211 36.7539 12.7899 36.4817 12.7899H22.7783L22.6139 11.6512C24.1009 10.4138 24.9731 8.54509 24.9731 6.54353C24.9731 2.93549 22.1502 0 18.6803 0C15.2105 0 12.3875 2.9354 12.3875 6.54353C12.3875 8.545 13.2597 10.4138 14.7467 11.6512L14.5823 12.7899H0.878922C0.606726 12.7899 0.34991 12.9211 0.183534 13.145C0.0170696 13.3689 -0.040235 13.6604 0.0284074 13.9343L5.93306 37.5084C6.03378 37.911 6.3835 38.192 6.78357 38.192H30.5772C30.9772 38.192 31.3269 37.9111 31.4277 37.5084L31.6994 36.4234C32.0204 39.5536 34.5753 42 37.6695 42C40.9653 42 43.6494 39.2243 43.6734 35.8027L44.9749 21.8431C45.1152 20.4084 44.6625 18.9718 43.7328 17.9016ZM14.1454 6.54371C14.1454 3.94354 16.1798 1.82801 18.6805 1.82801C21.181 1.82801 23.2155 3.94335 23.2155 6.54371C23.2155 8.1299 22.4548 9.60075 21.1807 10.4782C20.8959 10.6744 20.7461 11.0245 20.7969 11.3758L21.0011 12.79H16.3599L16.5641 11.3758C16.6148 11.0244 16.465 10.6744 16.1802 10.4782C14.9061 9.60075 14.1454 8.1299 14.1454 6.54371ZM10.9172 36.3643L8.27173 22.8897C8.17461 22.3952 7.71029 22.076 7.2348 22.1771C6.75923 22.278 6.4524 22.7608 6.54943 23.2554L9.12321 36.3643H7.46297L2.01614 14.618H11.635L13.573 36.3643H10.9172ZM19.5592 36.3643V18.7757C19.5592 18.271 19.1657 17.8618 18.6803 17.8618C18.1949 17.8618 17.8014 18.271 17.8014 18.7757V36.3643H15.3385L13.4005 14.618H23.9602L22.0223 36.3643H19.5592ZM29.8978 36.3643H28.2375L30.8112 23.2554C30.9083 22.7607 30.6014 22.278 30.1258 22.1771C29.6504 22.0762 29.186 22.3953 29.0889 22.8897L26.4434 36.3643H23.7875L25.7255 14.618H35.3444L29.8978 36.3643ZM43.2256 21.6626L41.9198 35.6689C41.917 35.6981 41.9156 35.7276 41.9156 35.7571C41.9156 38.1916 40.0108 40.1724 37.6694 40.1724C35.3281 40.1724 33.4231 38.1917 33.4231 35.7571V34.7808H40.0873C40.5727 34.7808 40.9662 34.3717 40.9662 33.8669V18.1724C41.5232 18.3383 42.0256 18.6634 42.4283 19.1269C43.0342 19.8243 43.3176 20.7233 43.2256 21.6626Z" fill="white"/>
</svg>
