<svg width="39" height="39" viewBox="0 0 39 39" fill="none" xmlns="http://www.w3.org/2000/svg">
<path d="M26.3555 17.9766C26.7761 17.9766 27.1172 17.6355 27.1172 17.2148V14.9297C27.1172 14.5091 26.7761 14.168 26.3555 14.168H17.2148C16.7942 14.168 16.4531 14.5091 16.4531 14.9297V33.2109C16.4531 33.6316 16.7942 33.9727 17.2148 33.9727H26.3555C26.7761 33.9727 27.1172 33.6316 27.1172 33.2109C27.1172 32.7903 26.7761 32.4492 26.3555 32.4492H17.9766V29.4023H21.7852C22.2058 29.4023 22.5469 29.0612 22.5469 28.6406C22.5469 28.22 22.2058 27.8789 21.7852 27.8789H17.9766V24.832H25.5938V28.6406C25.5938 29.0612 25.9348 29.4023 26.3555 29.4023C26.7761 29.4023 27.1172 29.0612 27.1172 28.6406V21.7852C27.1172 21.3645 26.7761 21.0234 26.3555 21.0234C25.9348 21.0234 25.5938 21.3645 25.5938 21.7852V23.3086H17.9766V15.6914H21.0234V19.5C21.0234 19.9206 21.3645 20.2617 21.7852 20.2617C22.2058 20.2617 22.5469 19.9206 22.5469 19.5V15.6914H25.5938V17.2148C25.5938 17.6355 25.9348 17.9766 26.3555 17.9766Z" fill="white"/>
<path d="M22.5469 39C22.9676 39 23.3086 38.659 23.3086 38.2383C23.3086 37.8176 22.9676 37.4766 22.5469 37.4766C22.1262 37.4766 21.7852 37.8176 21.7852 38.2383C21.7852 38.659 22.1262 39 22.5469 39Z" fill="white"/>
<path d="M34.8105 5.02734C32.5005 5.02734 30.6211 6.90673 30.6211 9.2168V9.59766H12.9492V6.47461C12.9492 2.90451 10.0447 0 6.47461 0C2.90451 0 0 2.90451 0 6.47461V32.5254C0 36.0955 2.90451 39 6.47461 39H19.1191C19.5397 39 19.8808 38.6589 19.8808 38.2383C19.8808 37.8177 19.5397 37.4766 19.1191 37.4766H10.638C12.087 36.2596 12.9492 34.4719 12.9492 32.5254V11.1211H30.6211V34.8105C30.6211 35.2312 30.9622 35.5723 31.3828 35.5723C31.8034 35.5723 32.1445 35.2312 32.1445 34.8105C32.1445 33.3405 33.3405 32.1445 34.8105 32.1445C36.2806 32.1445 37.4766 33.3405 37.4766 34.8105C37.4766 36.2806 36.2806 37.4766 34.8105 37.4766H25.9747C25.5541 37.4766 25.213 37.8177 25.213 38.2383C25.213 38.6589 25.5541 39 25.9747 39H34.8105C37.1206 39 39 37.1206 39 34.8105V9.2168C39 6.90673 37.1206 5.02734 34.8105 5.02734ZM6.47461 37.4766C3.74453 37.4766 1.52344 35.2555 1.52344 32.5254C1.52344 30.5042 2.76047 28.7106 4.57031 27.9547V31.3828C4.57031 33.0629 5.93714 34.4297 7.61719 34.4289H11.0452C10.2893 36.2396 8.49568 37.4766 6.47461 37.4766ZM11.4097 32.9062H7.61719C6.77716 32.9062 6.09375 32.2228 6.09375 31.3828V27.5903C6.22042 27.5806 6.34748 27.5742 6.47461 27.5742C9.20469 27.5742 11.4258 29.7953 11.4258 32.5254C11.4258 32.6525 11.4194 32.7796 11.4097 32.9062ZM11.4258 28.3596C10.2371 26.9491 8.45919 26.0508 6.47461 26.0508C4.52865 26.0508 2.74074 26.9126 1.52344 28.362V6.47461C1.52344 3.74453 3.74453 1.52344 6.47461 1.52344C9.20469 1.52344 11.4258 3.74453 11.4258 6.47461V28.3596ZM37.4766 31.5812C36.7516 30.9817 35.8225 30.6211 34.8105 30.6211C33.7986 30.6211 32.8695 30.9816 32.1445 31.5812V9.2168C32.1445 7.74676 33.3405 6.55078 34.8105 6.55078C36.2806 6.55078 37.4766 7.74676 37.4766 9.2168V31.5812Z" fill="white"/>
</svg>
