<svg width="39" height="47" viewBox="0 0 39 47" fill="none" xmlns="http://www.w3.org/2000/svg">
<path d="M16.238 16.4072C16.7053 16.6155 17.1963 16.7141 17.68 16.7141C18.9897 16.7141 20.245 15.9912 20.8278 14.7665C21.6258 13.0895 20.8653 11.0968 19.1324 10.3246C18.2931 9.95059 17.3534 9.91516 16.4864 10.225C15.6195 10.5349 14.9291 11.1529 14.5426 11.9653C14.1559 12.7777 14.1194 13.6871 14.4397 14.5261C14.7599 15.3652 15.3986 16.033 16.238 16.4072ZM15.8351 12.5412C16.0627 12.0629 16.4691 11.699 16.9795 11.5165C17.2095 11.4343 17.4482 11.3933 17.6863 11.3933C17.9765 11.3933 18.2658 11.4542 18.5373 11.5752C19.5575 12.0299 20.0052 13.203 19.5354 14.1904C19.0656 15.1778 17.8532 15.6112 16.8331 15.1563C16.3389 14.9361 15.9629 14.5427 15.7744 14.0488C15.5859 13.555 15.6075 13.0195 15.8351 12.5412Z" fill="white"/>
<path d="M10.7785 31.453L13.2076 32.5356C13.3039 32.5785 13.4051 32.5988 13.5047 32.5988C13.7738 32.5988 14.0314 32.4502 14.1513 32.1981C14.3156 31.8527 14.1595 31.4438 13.8027 31.2847L11.5594 30.285L13.2753 27.7186C13.2937 27.6912 13.31 27.6623 13.3242 27.6326C13.5707 27.1147 13.5939 26.535 13.3898 26.0003C13.1856 25.4654 12.7786 25.0396 12.2435 24.8011C11.7083 24.5626 11.1093 24.5401 10.5569 24.7376C10.0042 24.9352 9.56418 25.3291 9.31774 25.847C9.30361 25.8767 9.29166 25.9075 9.28198 25.9389L8.38245 28.8686L6.59675 28.0729C7.12539 22.867 8.64625 16.0495 10.3498 11.2971C10.4785 10.9379 10.2821 10.5457 9.91079 10.421C9.53942 10.2963 9.13419 10.4866 9.00547 10.8458C7.21503 15.8408 5.62257 23.0732 5.13291 28.4336C5.10645 28.7234 5.27103 28.998 5.54393 29.1197L7.97295 30.2022L7.11838 32.9854C6.95693 33.5113 7.21352 34.0597 7.7285 34.2892C7.8834 34.3583 8.04561 34.3913 8.20535 34.3913C8.57652 34.3913 8.93347 34.2124 9.1488 33.8903L10.7785 31.453ZM10.6291 26.3858C10.7193 26.2204 10.8672 26.0947 11.0499 26.0294C11.246 25.9592 11.4586 25.9673 11.6485 26.052C11.8384 26.1366 11.9828 26.2877 12.0552 26.4775C12.1227 26.6542 12.1202 26.8447 12.0489 27.0185L9.06457 31.4819L10.6291 26.3858Z" fill="white"/>
<path d="M38.8202 9.26446C38.6521 9.0815 38.3961 8.9987 38.1482 9.04698L35.3898 9.58402C35.3547 9.5909 35.3178 9.58879 35.2836 9.57796L32.5884 8.72504C30.6866 8.12402 28.6344 9.1319 28.0137 10.9713L27.7158 11.8529C27.7451 11.4921 27.759 11.1242 27.7559 10.7492C27.7595 10.7198 27.7611 10.6899 27.7607 10.6599C27.678 5.40874 24.4534 0.518988 24.3162 0.313446C24.1726 0.0983578 23.9181 -0.0196978 23.6564 0.00270157C23.6454 0.00361957 23.6345 0.00325237 23.6235 0.00472118C23.6196 0.00518018 23.6114 0.00637359 23.601 0.0077506C23.1359 0.0708176 17.3541 0.911619 13.2605 4.19725C13.2365 4.21653 13.2141 4.23719 13.1932 4.25894C11.8486 5.35458 10.8309 6.60353 10.1778 7.97576L10.0612 8.22464C9.8997 8.57127 10.0593 8.97896 10.4174 9.1352C10.7758 9.29136 11.1969 9.13704 11.3583 8.7904L11.4716 8.5486C12.0327 7.3697 12.8641 6.37559 13.8345 5.53864L26.3359 11.1104C26.3087 12.3672 26.0677 13.6247 25.5063 14.8044C24.7307 16.4351 23.461 18.5173 21.8262 20.8431L14.3914 20.0395C14.388 20.0391 14.3847 20.0387 14.3813 20.0385C13.179 19.9249 12.1068 20.7795 11.99 21.9425C11.9887 21.956 11.9881 21.9694 11.987 21.9828C11.9852 22.005 11.9832 22.0271 11.9821 22.0492C11.9816 22.0587 11.9817 22.0681 11.9814 22.0774C11.9805 22.1042 11.9796 22.131 11.9797 22.1577C11.9797 22.1605 11.9799 22.1633 11.9799 22.1661C11.9833 22.6502 12.1563 23.1148 12.4785 23.4938C12.4879 23.5048 12.4984 23.5145 12.508 23.5253C12.5358 23.5568 12.5645 23.5875 12.5942 23.6173C12.6162 23.6394 12.6387 23.6609 12.6615 23.682C12.6885 23.7069 12.7161 23.7311 12.7444 23.7547C12.7715 23.7773 12.7991 23.7992 12.8273 23.8204C12.8541 23.8407 12.8815 23.8604 12.9094 23.8795C12.9393 23.8999 12.9695 23.9195 13.0003 23.9384C13.0315 23.9576 13.0633 23.976 13.0955 23.9937C13.123 24.0086 13.1507 24.023 13.1786 24.0367C13.2191 24.0567 13.2603 24.0757 13.3023 24.0933C13.3221 24.1015 13.3421 24.1093 13.3621 24.1169C13.4135 24.1366 13.4657 24.1552 13.5191 24.1712C13.5297 24.1744 13.5406 24.177 13.5513 24.18C13.611 24.197 13.6715 24.2121 13.7334 24.2242C13.738 24.2251 13.7427 24.2257 13.7473 24.2266C13.8144 24.2392 13.8824 24.2493 13.9517 24.256L20.1812 24.9293L17.8727 27.9467C17.8717 27.9478 17.8708 27.9488 17.8698 27.95L16.7273 29.443C16.7252 29.446 16.7236 29.4493 16.7215 29.4522C16.7027 29.4775 16.6856 29.504 16.6704 29.5316C16.6694 29.5337 16.6676 29.5359 16.6664 29.5378L16.4459 29.9205C16.4439 29.9241 16.4421 29.9277 16.44 29.9312L9.06287 42.7321C8.87676 43.0551 8.98746 43.4626 9.31368 43.6552L12.5749 45.581C12.6901 45.6492 12.8182 45.6819 12.945 45.6819C13.16 45.6819 13.3714 45.5877 13.5105 45.4118L19.4618 37.885C19.7006 37.583 19.6412 37.1509 19.3292 36.9198C19.0173 36.6889 18.5707 36.7462 18.3319 37.0482L12.7695 44.0829L10.6388 42.8245L16.3289 32.9509C16.6036 33.5229 17.0489 34.0257 17.6448 34.3819L24.2012 38.3002L22.2434 45.0873C22.1387 45.4503 22.355 45.8273 22.7287 45.9332L26.3961 46.9723C26.4615 46.9908 26.5289 47 26.5959 47C26.7155 47 26.8343 46.9708 26.9407 46.9137C27.1069 46.8246 27.2294 46.6748 27.2808 46.4978L30.1522 36.612C30.4862 35.5088 30.0092 34.3228 28.9922 33.7278L24.6791 31.2043L29.0373 25.5075C29.5175 24.8786 29.7714 24.1353 29.7714 23.3577C29.7714 22.2159 29.2055 21.1284 28.2575 20.4486C26.9038 19.4794 25.0898 19.5295 23.8026 20.4559C24.8424 18.9133 25.7062 17.4939 26.3557 16.2607C26.2003 18.1568 27.3956 19.9847 29.3437 20.6006C29.7815 20.7397 30.2373 20.8103 30.698 20.8103C32.5877 20.8103 34.2513 19.6422 34.8375 17.9041L35.4521 16.0855C35.452 16.0857 35.4522 16.0854 35.4521 16.0855C35.5833 15.6965 35.6538 15.2982 35.6655 14.8967C36.8245 14.4683 37.7451 13.5502 38.1348 12.3948L38.9648 9.93543C39.0434 9.70299 38.9884 9.44742 38.8202 9.26446ZM15.0938 4.58392C18.2076 2.49958 22.0564 1.67467 23.359 1.44305C23.7537 2.10016 24.5665 3.55006 25.2438 5.37974C25.2466 5.38717 25.2493 5.39461 25.2521 5.40204C25.3192 5.58399 25.3849 5.7698 25.4487 5.95881C25.4564 5.98149 25.4639 6.00435 25.4716 6.02711C25.4947 6.09651 25.5176 6.16637 25.5403 6.2366C25.5491 6.26396 25.5579 6.29122 25.5666 6.31867C25.5947 6.40717 25.6224 6.49621 25.6495 6.586C25.6579 6.61354 25.6659 6.64144 25.674 6.66908C25.6927 6.73214 25.7113 6.79539 25.7294 6.85901C25.7417 6.90197 25.7538 6.94521 25.7658 6.98845C25.7795 7.03765 25.793 7.08704 25.8062 7.13652C25.8189 7.18353 25.8317 7.23053 25.8439 7.2778C25.8573 7.32921 25.8701 7.3809 25.8831 7.43258C25.9044 7.51759 25.9251 7.60296 25.9453 7.6888C25.9542 7.72652 25.963 7.76435 25.9717 7.80217C25.9849 7.86028 25.9978 7.91866 26.0105 7.97714C26.0177 8.01056 26.0247 8.04406 26.0317 8.07757C26.075 8.28394 26.1145 8.49205 26.1497 8.70181C26.1543 8.72908 26.1589 8.75625 26.1634 8.78352C26.1741 8.84943 26.1843 8.91553 26.1941 8.98171C26.198 9.00797 26.2017 9.03432 26.2054 9.06066C26.2292 9.22765 26.2501 9.39546 26.2679 9.56382L15.0938 4.58392ZM14.7046 22.9519L14.1051 22.8871C14.1018 22.8867 14.0984 22.8864 14.0951 22.8861C14.0689 22.8836 14.0432 22.88 14.0179 22.875C14.015 22.8744 14.0122 22.8735 14.0091 22.8729C13.6862 22.8063 13.4454 22.5457 13.4078 22.2335C13.4075 22.2307 13.4069 22.228 13.4066 22.2252C13.4046 22.2071 13.404 22.1887 13.4035 22.1702C13.4033 22.1636 13.4025 22.1571 13.4024 22.1505C13.4023 22.1329 13.4037 22.1151 13.405 22.0973C13.4054 22.09 13.4053 22.0829 13.406 22.0757C13.4065 22.0709 13.4075 22.0663 13.4081 22.0616C13.4105 22.042 13.4131 22.0224 13.417 22.0034C13.4191 21.993 13.4222 21.9829 13.4248 21.9726C13.428 21.9596 13.4311 21.9464 13.4349 21.9337C13.4385 21.9221 13.443 21.9109 13.4472 21.8995C13.4512 21.8887 13.4549 21.8777 13.4593 21.8671C13.4644 21.8551 13.4702 21.8434 13.4759 21.8318C13.4805 21.8224 13.4847 21.813 13.4897 21.804C13.4962 21.7918 13.5034 21.7802 13.5106 21.7685C13.5156 21.7605 13.5204 21.7524 13.5256 21.7446C13.5336 21.7326 13.5422 21.7212 13.551 21.7097C13.5562 21.7027 13.5614 21.6957 13.5668 21.689C13.5763 21.6775 13.5861 21.6663 13.5963 21.6552C13.6017 21.6494 13.6071 21.6434 13.6127 21.6377C13.6235 21.6267 13.6347 21.6161 13.6462 21.6058C13.6519 21.6007 13.6575 21.5956 13.6633 21.5907C13.6752 21.5805 13.6875 21.5707 13.7002 21.5612C13.706 21.5568 13.712 21.5525 13.718 21.5483C13.7311 21.5391 13.7444 21.5302 13.758 21.5218C13.7642 21.518 13.7705 21.5143 13.7767 21.5107C13.7907 21.5026 13.8048 21.4949 13.8192 21.4877C13.8259 21.4844 13.8326 21.4814 13.8393 21.4783C13.8538 21.4715 13.8684 21.465 13.8834 21.4592C13.8907 21.4564 13.8982 21.4539 13.9056 21.4513C13.9204 21.4459 13.9353 21.4409 13.9505 21.4365C13.9587 21.4341 13.967 21.4323 13.9753 21.4301C13.9901 21.4264 14.0049 21.4226 14.02 21.4198C14.0295 21.4179 14.0392 21.4167 14.0489 21.4153C14.0631 21.4131 14.0772 21.4108 14.0917 21.4094C14.1035 21.4083 14.1155 21.408 14.1273 21.4074C14.1399 21.4067 14.1524 21.4057 14.1653 21.4056C14.1896 21.4055 14.2142 21.4064 14.239 21.4086L14.9115 21.4813L14.7046 22.9519ZM28.2558 34.9066C28.2557 34.9065 28.2559 34.9066 28.2558 34.9066C28.7209 35.1786 28.9394 35.7209 28.7846 36.2324L26.1056 45.4555L23.8027 44.803L25.7155 38.1718C25.8006 37.8764 25.6737 37.562 25.404 37.4009L18.3925 33.2107C17.4711 32.66 17.1617 31.5128 17.6861 30.5966L17.902 30.2222L18.6277 29.2737L28.2558 34.9066ZM27.4108 21.5556C28.0067 21.9829 28.3485 22.6399 28.3485 23.3581C28.3485 23.8388 28.1911 24.2992 27.8934 24.6889L23.4562 30.489L19.4786 28.162L21.8165 25.1061L25.3517 25.4882C25.355 25.4886 25.3583 25.4889 25.3617 25.4892C25.434 25.496 25.506 25.4994 25.5776 25.4994C26.0832 25.4994 26.5692 25.3315 26.9647 25.0165C27.4164 24.6569 27.6964 24.1485 27.753 23.5853C27.8096 23.0219 27.6361 22.4709 27.2646 22.0338C26.8942 21.598 26.371 21.3275 25.7911 21.2715L25.337 21.2224C26.02 21.0143 26.7929 21.1133 27.4108 21.5556ZM25.6378 22.6405C25.6411 22.6409 25.6444 22.6413 25.6478 22.6415C26.0686 22.6811 26.3777 23.0447 26.3368 23.452C26.317 23.6492 26.219 23.8272 26.0607 23.9531C25.9038 24.0782 25.706 24.1368 25.5036 24.1191L16.1191 23.1048L16.3262 21.634L23.4214 22.4009C23.424 22.4013 23.4265 22.4014 23.429 22.4018L25.6378 22.6405ZM34.0999 15.6576L33.4851 17.4766C33.0903 18.647 31.9704 19.4335 30.6981 19.4335C30.3883 19.4335 30.0819 19.386 29.7866 19.2922C28.2492 18.8061 27.4071 17.2003 27.9092 15.7127L28.0906 15.1755L29.5645 15.6419C29.5974 15.6524 29.6306 15.6595 29.6637 15.6652C29.6707 15.6664 29.6778 15.6675 29.6849 15.6686C29.7175 15.6731 29.75 15.6758 29.7824 15.676C29.7834 15.676 29.7846 15.6763 29.7857 15.6763C29.7884 15.6763 29.7912 15.6757 29.7939 15.6756C29.8252 15.6753 29.8562 15.6728 29.8867 15.6686C29.8916 15.6679 29.8965 15.6675 29.9012 15.6667C29.9335 15.6616 29.9652 15.6541 29.9962 15.6448C30.0018 15.6431 30.0072 15.6412 30.0127 15.6394C30.044 15.6291 30.0748 15.6174 30.1043 15.6031C30.1042 15.6032 30.1044 15.6031 30.1043 15.6031C30.1338 15.5888 30.162 15.5719 30.1892 15.5537C30.1945 15.5502 30.1997 15.5467 30.2049 15.5431C30.231 15.5247 30.2559 15.5048 30.2793 15.483C30.2827 15.4799 30.2858 15.4765 30.289 15.4733C30.3102 15.4528 30.33 15.4309 30.3484 15.4078C30.3517 15.4036 30.3552 15.3997 30.3584 15.3955C30.3777 15.3701 30.3951 15.3431 30.4107 15.3149C30.4141 15.3088 30.4173 15.3026 30.4205 15.2964C30.4359 15.2667 30.4498 15.2363 30.4609 15.204L30.4997 15.0905C30.509 15.063 30.5196 15.0362 30.5315 15.0104C30.5334 15.0063 30.5356 15.0025 30.5375 14.9985C30.548 14.9765 30.559 14.9548 30.5712 14.9341C30.5717 14.9332 30.5723 14.9324 30.5728 14.9316C30.7303 14.6663 31.0249 14.5052 31.3369 14.507C31.3393 14.507 31.3417 14.5068 31.3441 14.5068C31.3667 14.5071 31.3894 14.5089 31.4121 14.511C31.4185 14.5116 31.4248 14.5117 31.4312 14.5123C31.4509 14.5145 31.4707 14.5183 31.4906 14.5219C31.4996 14.5235 31.5087 14.5244 31.5177 14.5264C31.5462 14.5324 31.5745 14.5398 31.6027 14.5488L32.9072 14.9619C32.9873 14.9872 33.0683 15.0094 33.1497 15.0301C33.1633 15.0335 33.1768 15.0372 33.1904 15.0404C33.2708 15.0598 33.3515 15.077 33.4327 15.0918C33.4427 15.0936 33.4527 15.0952 33.4627 15.0969C33.6327 15.1266 33.8041 15.1459 33.9759 15.1547C33.9857 15.1551 33.9954 15.1558 34.005 15.1562C34.0762 15.1593 34.1473 15.1614 34.2184 15.1608C34.1947 15.328 34.1551 15.4939 34.0999 15.6576ZM36.7823 11.9676C36.4852 12.8483 35.7185 13.5203 34.7807 13.7217C34.3079 13.8235 33.8131 13.7998 33.3496 13.6531L32.045 13.2399C31.9866 13.2214 31.9277 13.2059 31.8686 13.1921C31.8614 13.1904 31.8542 13.1885 31.8469 13.1869C31.7884 13.1738 31.7296 13.163 31.6707 13.1544C31.666 13.1537 31.6613 13.153 31.6566 13.1524C31.192 13.0871 30.7189 13.1608 30.2915 13.3704C30.2682 13.3818 30.246 13.3946 30.2234 13.4066C30.2187 13.4091 30.2141 13.4115 30.2094 13.414C29.9931 13.5309 29.801 13.6783 29.6374 13.8507C29.6352 13.8531 29.633 13.8555 29.6307 13.8579C29.5909 13.9003 29.5526 13.944 29.5163 13.9893C29.5148 13.9912 29.5131 13.9931 29.5116 13.995C29.4735 14.0429 29.4367 14.0916 29.4029 14.1424L28.5351 13.8678L28.5323 13.8669L29.3661 11.3991C29.7433 10.2813 30.9903 9.66893 32.1464 10.034L34.8412 10.8869C35.1082 10.9713 35.395 10.9876 35.6704 10.934L37.2337 10.6297L36.7823 11.9676Z" fill="white"/>
<path d="M7.78097 44.0518H0.711431C0.318531 44.0518 0 44.3601 0 44.7403C0 45.1205 0.318531 45.4288 0.711431 45.4288H7.78097C8.17387 45.4288 8.4924 45.1205 8.4924 44.7403C8.4924 44.3601 8.17387 44.0518 7.78097 44.0518Z" fill="white"/>
<path d="M7.78097 40.0995H2.8131C2.4202 40.0995 2.10167 40.4077 2.10167 40.788C2.10167 41.1682 2.4202 41.4765 2.8131 41.4765H7.78097C8.17387 41.4765 8.4924 41.1682 8.4924 40.788C8.4924 40.4077 8.17387 40.0995 7.78097 40.0995Z" fill="white"/>
<path d="M7.78096 36.1473H5.67893C5.28603 36.1473 4.9675 36.4555 4.9675 36.8358C4.9675 37.216 5.28603 37.5243 5.67893 37.5243H7.78096C8.17386 37.5243 8.49239 37.216 8.49239 36.8358C8.49239 36.4555 8.17386 36.1473 7.78096 36.1473Z" fill="white"/>
</svg>
