<svg width="43" height="46" viewBox="0 0 43 46" fill="none" xmlns="http://www.w3.org/2000/svg">
<path d="M21.5 4.56298C20.9953 4.56298 20.5863 4.16075 20.5863 3.66455V0.898437C20.5863 0.40223 20.9953 0 21.5 0C22.0046 0 22.4137 0.40223 22.4137 0.898437V3.66455C22.4137 4.16075 22.0046 4.56298 21.5 4.56298Z" fill="white"/>
<path d="M9.61405 9.40471C9.38013 9.40471 9.1464 9.31703 8.96795 9.14156L6.97865 7.18566C6.62184 6.83482 6.62184 6.26593 6.97865 5.915C7.33556 5.56417 7.91395 5.56417 8.27095 5.915L10.2602 7.87099C10.6171 8.22183 10.6171 8.79072 10.2602 9.14165C10.0817 9.31703 9.84797 9.40471 9.61405 9.40471Z" fill="white"/>
<path d="M33.3859 9.40388C33.152 9.40388 32.9183 9.31619 32.7398 9.14073C32.383 8.78989 32.383 8.22099 32.7398 7.87007L34.7291 5.91408C35.086 5.56324 35.6644 5.56324 36.0214 5.91408C36.3782 6.26492 36.3782 6.83381 36.0214 7.18474L34.0321 9.14073C33.8536 9.31619 33.6199 9.40388 33.3859 9.40388Z" fill="white"/>
<path d="M3.96763 33.643C3.73371 33.643 3.49998 33.5554 3.32153 33.3799C2.96471 33.029 2.96471 32.4602 3.32153 32.1092L5.31073 30.1533C5.66763 29.8025 6.24603 29.8025 6.60302 30.1533C6.95984 30.5042 6.95984 31.0731 6.60302 31.424L4.61373 33.38C4.43528 33.5554 4.20155 33.643 3.96763 33.643Z" fill="white"/>
<path d="M39.0324 33.6431C38.7985 33.6431 38.5647 33.5554 38.3863 33.38L36.3971 31.424C36.0403 31.0731 36.0403 30.5042 36.3971 30.1533C36.754 29.8025 37.3324 29.8025 37.6894 30.1533L39.6787 32.1092C40.0355 32.4601 40.0355 33.0289 39.6787 33.3799C39.5 33.5554 39.2662 33.6431 39.0324 33.6431Z" fill="white"/>
<path d="M42.0863 21.0909H39.2731C38.7685 21.0909 38.3593 20.6887 38.3593 20.1925C38.3593 19.6963 38.7685 19.2941 39.2731 19.2941H42.0863C42.5908 19.2941 43 19.6963 43 20.1925C43 20.6887 42.5908 21.0909 42.0863 21.0909Z" fill="white"/>
<path d="M3.72694 21.0909H0.913736C0.409171 21.0909 0 20.6887 0 20.1925C0 19.6963 0.409171 19.2941 0.913736 19.2941H3.72694C4.2316 19.2941 4.64068 19.6963 4.64068 20.1925C4.64068 20.6887 4.2316 21.0909 3.72694 21.0909Z" fill="white"/>
<path d="M34.7903 28.6206C33.8959 28.6218 33.5375 27.4612 34.2831 26.9755C34.5812 26.7743 34.9995 26.7745 35.2974 26.9755C36.0448 27.4616 35.6843 28.6216 34.7903 28.6206Z" fill="white"/>
<path d="M21.5 29.4405C19.7855 29.4405 18.3907 28.0691 18.3907 26.3833C18.3907 24.6976 19.7856 23.3261 21.5 23.3261C23.2144 23.3261 24.6092 24.6976 24.6092 26.3833C24.6092 28.0691 23.2145 29.4405 21.5 29.4405ZM21.5 25.123C20.7932 25.123 20.2182 25.6884 20.2182 26.3833C20.2182 27.0783 20.7932 27.6437 21.5 27.6437C22.2068 27.6437 22.7818 27.0783 22.7818 26.3833C22.7818 25.6884 22.2068 25.123 21.5 25.123Z" fill="white"/>
<path d="M32.7112 10.3609C29.7905 7.44877 25.8933 5.81173 21.7376 5.75118C17.5413 5.69278 13.5613 7.25121 10.5328 10.1471C7.50734 13.0403 5.81099 16.9033 5.75635 21.0245C5.71998 23.7608 6.41881 26.4635 7.77708 28.8404C9.08774 31.1337 10.9769 33.0747 13.2402 34.4536C14.67 35.3247 15.5236 36.8305 15.5236 38.4816V41.959C15.5236 42.4552 15.9328 42.8574 16.4374 42.8574H17.7615V45.1016C17.7615 45.5978 18.1706 46 18.6752 46H24.3246C24.8292 46 25.2384 45.5978 25.2384 45.1016V42.8574H26.5625C27.067 42.8574 27.4762 42.4551 27.4762 41.9589V38.4814C27.4762 36.8293 28.3269 35.3253 29.7518 34.4584C30.5951 33.9452 31.3951 33.3482 32.1293 32.684C32.5006 32.348 32.5247 31.7796 32.1829 31.4145C31.8413 31.0495 31.2632 31.0257 30.8918 31.3618C30.2426 31.9492 29.5355 32.477 28.7902 32.9304C27.8491 33.503 27.0894 34.2767 26.553 35.1777L26.1828 33.1952H26.2313C26.7359 33.1952 27.1451 32.793 27.1451 32.2968C27.1451 31.8703 26.8428 31.5131 26.4374 31.4212L27.7808 28.1933C28.3153 27.1504 28.2966 25.9195 27.7288 24.8918L22.9524 16.2462C22.7925 15.9568 22.4845 15.7766 22.1495 15.7766H20.8504C20.5155 15.7766 20.2074 15.9567 20.0475 16.2462L15.2712 24.8917C14.7033 25.9195 14.6846 27.1504 15.2191 28.1932L16.5625 31.4211C16.1572 31.5131 15.8549 31.8701 15.8549 32.2967C15.8549 32.7929 16.264 33.1951 16.7686 33.1951H16.8169L16.4462 35.1798C15.9085 34.2772 15.1467 33.5012 14.2026 32.9261C10.0561 30.4 7.51986 25.8485 7.58364 21.0479C7.63188 17.4072 9.13178 13.9933 11.807 11.4352C14.4347 8.92257 17.8696 7.54625 21.501 7.54625C21.5706 7.54625 21.6408 7.54679 21.7105 7.54778C29.2687 7.65784 35.4176 13.7961 35.4176 21.2308C35.4176 21.8719 35.3721 22.517 35.2825 23.1481C35.2126 23.6394 35.5611 24.0935 36.0609 24.1622C36.561 24.2308 37.0225 23.8882 37.0923 23.3968C37.1938 22.6836 37.2452 21.9548 37.2452 21.2307C37.245 17.1364 35.6348 13.2759 32.7112 10.3609ZM23.411 44.2031H19.589V42.8574H23.411V44.2031ZM25.6488 41.0605H17.3511V39.38H25.6488V41.0605ZM16.877 25.7494L21.394 17.5734H21.606L26.123 25.7494C26.4079 26.2648 26.4138 26.8834 26.1389 27.4041C26.1262 27.4281 26.1146 27.4527 26.1042 27.4777L24.4726 31.3981H18.5275L16.8959 27.4777C16.8855 27.4527 16.8739 27.4281 16.8612 27.4041C16.5863 26.8835 16.5922 26.2648 16.877 25.7494ZM24.3248 33.1951L25.1443 37.5832H17.8556L18.6751 33.1951H24.3248Z" fill="white"/>
</svg>
