<svg width="16" height="14" viewBox="0 0 16 14" fill="none" xmlns="http://www.w3.org/2000/svg">
<path d="M9.09701 0.0321078C8.8968 0.111134 8.77793 0.206624 8.43696 0.575413C8.0428 0.993594 7.9646 1.14177 7.9646 1.47104C7.9646 1.87935 7.9208 1.82008 9.84464 3.84842L11.587 5.68578H6.15337C0.766624 5.68578 0.716573 5.68578 0.547651 5.75163C0.316164 5.84383 0.112832 6.07432 0.0440113 6.32457C0.00334473 6.47275 -0.00603986 6.62422 0.00334473 7.06215C0.0127293 7.5396 0.0221139 7.6318 0.0815496 7.76351C0.159754 7.94791 0.344318 8.15206 0.51324 8.23767C0.63524 8.30352 0.747855 8.30352 6.12209 8.31999L11.6027 8.33645L9.8509 10.1804C7.9208 12.212 7.96147 12.1593 7.9646 12.5578C7.96773 12.8739 8.06157 13.0451 8.48075 13.4765C8.9187 13.9309 9.03131 14 9.35039 14C9.54434 13.9967 9.61316 13.9835 9.74141 13.9111C9.951 13.7926 15.8508 7.57912 15.9384 7.38155C16.026 7.18398 16.0197 6.80202 15.9227 6.60446C15.8226 6.39372 9.89157 0.157233 9.71326 0.071621C9.55059 -0.00411252 9.2409 -0.0238691 9.09701 0.0321078Z" fill="black"/>
</svg>
