<svg width="25" height="25" viewBox="0 0 25 25" fill="none" xmlns="http://www.w3.org/2000/svg">
<path d="M5.56641 0.0337149C4.63867 0.136254 3.57422 0.526879 2.80762 1.03957C2.40234 1.31301 2.28027 1.41555 1.81641 1.86965C0.976562 2.69485 0.385742 3.79348 0.117188 5.02883C0.0292969 5.42434 0.0244141 5.79055 0.0244141 12.4995C0.0244141 19.2085 0.0292969 19.5747 0.117188 19.9702C0.668945 22.4849 2.51465 24.3306 5.0293 24.8823C5.4248 24.9702 5.79102 24.9751 12.5 24.9751C19.209 24.9751 19.5752 24.9702 19.9707 24.8823C22.4854 24.3306 24.3311 22.4849 24.8828 19.9702C24.9707 19.5747 24.9756 19.2085 24.9756 12.4995C24.9756 5.79055 24.9707 5.42434 24.8828 5.02883C24.3945 2.7925 22.8223 1.01028 20.7275 0.326684C19.7607 0.0093008 20.3467 0.0288321 12.6953 0.0239492C8.86719 0.0190664 5.65918 0.0239492 5.56641 0.0337149ZM19.5801 2.1675C20.0391 2.26516 20.6299 2.50442 20.9912 2.74368C21.9385 3.36379 22.6465 4.4136 22.8467 5.4927C22.8857 5.68801 22.9004 7.88528 22.9004 12.5191C22.9004 18.0708 22.8857 19.3208 22.832 19.5796C22.6709 20.3413 22.2607 21.1031 21.7139 21.6695C21.1621 22.2359 20.249 22.7193 19.4727 22.8511C19.2578 22.8853 17.0508 22.8999 12.3047 22.8902L5.44434 22.8755L4.98047 22.7144C4.33594 22.4898 3.81348 22.1675 3.34473 21.7036C2.71973 21.0884 2.34375 20.4097 2.16797 19.5796C2.07031 19.106 2.07031 5.89309 2.16797 5.41946C2.51465 3.79348 3.76953 2.52883 5.39551 2.17239C5.83984 2.07473 19.1211 2.06985 19.5801 2.1675Z" fill="#A1C411"/>
<path d="M17.3438 8.45659C17.2266 8.52006 15.7617 9.92143 13.9307 11.7232C12.1631 13.4566 10.6348 14.9458 10.5322 15.0386L10.3467 15.1998L9.18945 14.0523C8.55469 13.4175 7.9541 12.8609 7.86133 12.8121C7.58789 12.6705 7.1582 12.69 6.875 12.856C6.39648 13.1343 6.2207 13.7789 6.49414 14.2427C6.5625 14.355 7.33398 15.1509 8.21289 16.0103C9.73633 17.4996 9.82422 17.5777 10.083 17.6509C10.4687 17.7632 10.7666 17.69 11.1035 17.3921C11.2402 17.2701 12.998 15.5562 15.0098 13.5787C17.6367 11.0005 18.6914 9.9312 18.7549 9.7896C19.1504 8.92534 18.1738 8.00737 17.3438 8.45659Z" fill="#A1C411"/>
</svg>
