<svg width="20" height="20" viewBox="0 0 20 20" fill="none" xmlns="http://www.w3.org/2000/svg">
<path d="M9.29776 0.0192968C8.32304 0.113116 7.68498 0.234299 6.95688 0.468846C5.38717 0.969214 4.06015 1.78622 2.88972 2.96678C1.33175 4.54215 0.419668 6.37162 0.0712771 8.6311C-0.0304999 9.31128 -0.0226709 10.7342 0.0908497 11.4652C0.267002 12.5754 0.556675 13.494 1.05382 14.4752C1.53922 15.4291 2.03636 16.1327 2.77228 16.9028C5.82168 20.0926 10.5543 20.9097 14.5158 18.9277C14.7585 18.8065 14.966 18.6971 14.9816 18.6815C15.0051 18.6619 14.7233 18.1342 14.4806 17.7511L14.4258 17.6651L13.909 17.9153C12.582 18.5564 11.4586 18.8144 9.98279 18.8105C8.53443 18.8105 7.43445 18.5603 6.14658 17.9348C3.3712 16.5901 1.47658 13.8615 1.19474 10.8007C0.822861 6.72735 3.32423 2.90814 7.21524 1.61813C10.1355 0.652575 13.3453 1.27022 15.7175 3.26387C17.0759 4.40533 18.1093 6.04716 18.5595 7.77109C19.0135 9.51456 18.9118 11.4339 18.2737 13.1266C17.9605 13.9514 17.2129 15.2297 16.931 15.4212C16.7901 15.519 16.5161 15.5424 16.3713 15.4682C16.3243 15.4447 16.0855 15.2297 15.8467 14.9912L15.4044 14.5573L15.5805 14.3775L15.7567 14.2016L12.997 11.4457L12.4489 11.9929C12.1475 12.2939 11.8735 12.5402 11.8383 12.5402C11.803 12.5402 11.5682 12.4894 11.3216 12.4269C9.46608 11.9578 8.0412 10.5348 7.57146 8.68192C7.50883 8.43564 7.45794 8.20109 7.45794 8.16591C7.45794 8.13073 7.70455 7.85709 8.00597 7.55609L8.554 7.00881L5.79428 4.25288L4.24805 5.79698V6.24653C4.24805 8.86955 5.25799 11.2698 7.10955 13.068C8.91413 14.8153 11.2198 15.7457 13.7603 15.7457H14.2144L14.5549 15.3978L15.056 15.8825C15.4631 16.2734 15.6118 16.3946 15.8585 16.5158C16.1599 16.6604 16.1716 16.6643 16.614 16.6643C17.0446 16.6643 17.0837 16.6565 17.3303 16.5393C17.667 16.3829 17.9292 16.1366 18.2385 15.691C19.1701 14.3384 19.7338 12.8569 19.953 11.172C20.0157 10.6834 20.0157 9.21746 19.953 8.76792C19.6281 6.46153 18.6612 4.48743 17.0876 2.92378C15.4122 1.25067 13.2397 0.238208 10.8831 0.0349333C10.4447 -0.00415791 9.61483 -0.0119762 9.29776 0.0192968Z" fill="#BDE226"/>
</svg>
